<?xml version="1.0" standalone="no"?>
<!DOCTYPE svg PUBLIC "-//W3C//DTD SVG 20010904//EN"
 "http://www.w3.org/TR/2001/REC-SVG-20010904/DTD/svg10.dtd">
<svg version="1.0" xmlns="http://www.w3.org/2000/svg"
 width="1336.000000pt" height="1300.000000pt" viewBox="0 0 1336.000000 1300.000000"
 preserveAspectRatio="xMidYMid meet">

<g transform="translate(0.000000,1300.000000) scale(0.100000,-0.100000)"
fill="#000000" stroke="none">
<path d="M4028 12833 l-2478 -3 0 -590 0 -590 -573 -2 -572 -3 -3 -5157 -2
-5158 570 0 570 0 0 -580 0 -580 488 0 c268 0 859 -3 1315 -7 l827 -6 0 616 0
617 2510 0 2510 0 1 -67 c2 -256 27 -1124 32 -1129 4 -4 588 -14 1299 -24
1086 -14 1295 -15 1304 -3 9 11 90 12 455 8 244 -3 522 -7 617 -10 l172 -5 0
1294 0 1294 -22 6 c-13 3 -53 6 -90 6 l-68 0 0 309 0 309 -385 7 c-211 4 -391
5 -400 2 -13 -6 -15 -38 -15 -231 0 -170 -3 -226 -12 -229 -10 -4 -10 -6 0 -6
6 -1 12 -13 12 -27 0 -23 3 -25 42 -22 35 2 43 7 49 28 6 22 7 21 8 -10 l1
-36 -60 -2 c-51 -2 -60 0 -61 15 0 13 -2 14 -6 4 -10 -24 23 -39 66 -31 31 5
38 4 34 -7 -7 -17 5 -17 23 1 16 16 19 96 4 96 -6 0 -10 69 -10 187 l0 186
167 -6 c91 -4 231 -7 310 -7 l143 0 0 -265 0 -265 -297 2 -298 3 -6 35 -6 35
-2 -42 -1 -43 263 -1 c300 -1 339 -1 350 0 4 1 7 125 7 276 l0 275 -27 0 c-16
1 -157 3 -314 7 -173 3 -289 1 -292 -4 -3 -5 -7 -98 -8 -206 -2 -206 -3 -211
-47 -212 l-23 -1 2 248 3 247 150 -3 c83 -2 257 -4 386 -5 l235 -1 3 -307 c2
-226 6 -309 15 -315 7 -4 47 -8 90 -8 l77 0 0 -1281 0 -1282 -620 7 c-481 6
-620 5 -620 -5 0 -13 -453 -10 -2190 17 -217 3 -396 6 -396 7 -3 4 -14 345
-20 647 -3 168 -7 337 -9 375 -2 39 -4 96 -4 128 l-1 57 -2517 -2 -2518 -3 -3
-612 -2 -613 -1305 0 -1305 0 0 580 0 580 -569 0 -569 0 1 5148 2 5147 565 1
c311 1 568 2 573 3 4 1 7 264 7 586 0 461 3 585 13 586 16 2 4527 8 5137 7
871 -2 2057 2 2983 8 l907 7 0 -459 c1 -252 3 -486 6 -519 9 -122 13 -157 16
-160 6 -6 1250 -28 1538 -28 117 0 780 14 827 18 25 2 43 -1 46 -8 2 -7 3
-334 3 -727 l-1 -715 -68 -3 c-42 -2 -69 -8 -72 -15 -3 -9 -9 -244 -15 -564
l0 -23 -245 0 -245 0 -1 -127 c0 -71 -2 -172 -3 -227 -1 -62 2 -99 8 -101 9
-3 516 -14 635 -15 l24 0 -7 -512 c-4 -282 -9 -589 -11 -683 -2 -93 -6 -372
-10 -620 -3 -247 -8 -547 -10 -665 -3 -118 -7 -411 -10 -650 -3 -239 -8 -523
-10 -630 -2 -107 -7 -415 -11 -685 -3 -269 -7 -543 -9 -607 -2 -93 0 -118 11
-122 8 -3 14 -19 14 -36 l0 -30 -1040 0 -1040 0 0 85 0 85 -235 0 -235 0 0
680 0 680 80 0 80 0 0 45 c0 45 0 45 35 45 l35 0 0 -80 0 -80 -80 0 -80 0 0
-610 c0 -481 3 -610 13 -611 6 -1 111 -2 232 -3 l220 -1 3 -82 c2 -46 6 -83
10 -84 29 -4 1905 -3 1907 1 1 3 6 264 10 580 4 316 9 595 10 620 3 40 8 598
6 643 -1 16 -41 17 -687 17 l-685 0 3 33 c3 30 5 32 47 33 24 1 46 6 50 12 3
6 6 60 5 121 l-1 111 34 0 33 0 0 -120 c0 -66 3 -120 8 -121 4 0 270 -2 591
-2 376 -1 589 2 597 8 10 8 13 70 14 275 1 146 1 273 1 283 -1 16 -35 17 -603
15 l-603 -3 -3 -122 -3 -123 -33 0 -33 0 0 108 c-1 59 -1 115 -2 125 -1 14
-11 17 -66 17 l-65 0 0 29 c0 16 6 31 13 33 6 3 322 4 700 4 448 -1 692 2 697
9 4 6 11 251 15 545 4 294 9 580 10 635 2 103 7 572 6 613 l-1 22 -1140 0
-1140 0 0 -111 0 -110 -32 3 -33 3 -1 105 0 105 -91 3 -91 3 3 67 c2 37 4 202
6 368 1 165 5 317 7 338 l4 37 447 -7 c462 -7 604 -10 658 -13 29 -1 32 -4 31
-32 l-1 -31 -539 7 -538 7 -1 -238 c-1 -132 -2 -282 -3 -334 l-1 -95 1224 -3
c674 -1 1228 1 1232 5 5 5 9 145 10 312 1 243 -1 305 -12 311 -7 5 -121 9
-254 10 -132 1 -283 3 -335 4 -52 2 -223 4 -380 6 -157 1 -291 5 -297 7 -7 3
-13 19 -13 35 l0 30 310 -5 c171 -2 312 -2 315 2 6 11 8 438 1 449 -3 5 -32
13 -63 16 -32 4 -73 10 -91 13 l-33 5 3 217 3 216 33 3 33 3 -2 -186 c-1 -102
1 -188 3 -191 16 -15 138 -23 405 -27 106 -2 197 -1 202 3 9 5 19 516 10 524
-2 2 -141 6 -308 8 -288 4 -304 4 -309 -14 -3 -12 -14 -18 -33 -18 -28 0 -29
2 -29 48 0 26 4 52 9 58 6 5 11 114 12 247 l2 237 34 0 34 0 -3 -239 c-1 -132
-1 -242 2 -244 3 -3 169 -6 370 -8 l365 -4 3 308 2 307 -350 0 c-227 0 -350 4
-350 10 0 6 -8 10 -17 9 -11 0 -13 -3 -5 -6 6 -2 12 -19 12 -37 l0 -33 -60 -2
-60 -2 0 36 c0 19 5 35 10 35 6 0 10 -11 10 -25 0 -22 4 -25 40 -25 35 0 40 3
39 23 0 16 -2 18 -7 7 -4 -8 -19 -16 -34 -16 l-28 -1 0 73 0 74 33 0 c28 0 33
-4 33 -22 l-1 -23 365 0 365 0 0 315 0 315 -80 -1 c-266 -4 -628 -15 -636 -19
-5 -4 -9 -104 -9 -229 0 -237 -1 -241 -48 -244 l-24 -1 5 235 c2 129 1 236 -2
238 -4 3 -209 7 -456 11 -248 4 -504 8 -570 10 -66 2 -254 4 -417 5 l-298 2 0
34 0 33 58 3 57 3 -1 45 c-1 80 -13 233 -19 238 -3 3 -106 8 -228 10 -122 2
-226 7 -230 11 -4 4 -5 15 -1 25 6 16 27 17 233 16 124 -1 232 -1 239 -1 10 1
12 78 10 369 l-3 367 -319 0 -320 0 0 -359 -1 -358 23 -9 c13 -5 28 -6 34 -3
6 4 8 -5 6 -22 -3 -26 -6 -28 -43 -28 -115 2 -117 3 -113 27 2 13 11 23 23 25
20 3 20 10 18 360 0 196 -1 360 -2 365 -1 4 -130 6 -288 5 l-288 -3 -3 -362
c-2 -341 -1 -363 15 -364 10 0 111 0 226 1 l207 1 0 -25 c0 -20 -5 -26 -22
-28 -13 0 -227 -2 -475 -3 l-453 -1 0 23 c0 26 -25 24 255 27 l190 1 0 365 0
364 -215 -3 c-118 -2 -246 -4 -285 -6 l-70 -1 -2 -75 c-2 -41 -4 -201 -5 -357
l-3 -283 23 -6 c14 -3 22 -13 22 -28 0 -21 -4 -22 -70 -22 -66 1 -70 2 -70 23
0 16 7 24 23 26 l22 3 3 356 c2 334 1 357 -15 360 -10 3 -142 4 -293 4 l-275
-1 0 -360 0 -359 218 -3 217 -2 0 -25 0 -25 -460 0 -460 0 0 25 0 25 213 2
212 3 3 357 c2 327 1 357 -14 360 -10 2 -140 2 -291 0 l-273 -3 2 -357 3 -357
28 -3 c21 -3 27 -9 27 -28 0 -24 -1 -24 -89 -24 -50 0 -92 4 -95 9 -12 19 7
40 37 43 l32 3 0 359 0 360 -65 1 c-36 1 -166 4 -290 6 l-225 3 0 -364 0 -365
208 -3 207 -2 0 -25 0 -25 -455 0 -455 0 0 25 0 25 218 2 217 3 3 363 c2 340
1 362 -15 363 -10 0 -110 0 -223 -1 -359 -4 -350 -3 -344 -53 1 -12 3 -169 3
-349 1 -321 1 -328 21 -328 15 0 20 -7 20 -25 0 -25 -1 -25 -79 -25 -77 0 -78
1 -78 24 0 21 5 25 31 28 l31 3 3 349 c1 204 -2 353 -7 360 -12 14 -567 14
-581 0 -7 -7 -9 -138 -8 -360 l3 -349 218 -3 217 -2 0 -25 0 -25 -455 0 -455
0 0 25 0 25 210 0 210 0 -2 362 -3 362 -280 0 -280 0 0 -360 0 -359 28 -3 c21
-3 27 -9 27 -28 0 -23 -2 -24 -75 -24 -73 0 -75 1 -75 25 0 18 5 25 19 25 11
0 21 4 23 10 2 5 2 154 0 330 l-3 320 -29 0 c-27 0 -30 3 -30 30 0 17 -5 30
-12 31 -87 7 -481 2 -487 -6 -3 -5 -6 -17 -5 -25 1 -8 2 -167 3 -352 l1 -338
210 0 210 0 0 -25 c0 -29 37 -27 -525 -29 -373 -2 -376 -2 -371 28 3 21 7 21
214 24 l212 2 0 359 c0 278 -3 360 -12 363 -7 2 -139 3 -292 3 l-280 -1 0
-359 0 -360 32 -3 c26 -3 32 -8 32 -26 0 -31 -28 -36 -142 -27 -28 2 -24 49 4
53 l22 3 1 349 c0 236 -3 353 -11 360 -7 7 -105 11 -295 10 l-284 0 0 -355 c0
-195 3 -359 8 -365 5 -8 72 -10 214 -9 114 2 212 1 219 -2 6 -2 11 -14 10 -26
l-1 -22 -477 -1 -478 0 0 23 0 23 220 0 c199 0 220 2 228 18 12 24 6 703 -6
711 -6 3 -138 6 -294 5 l-283 0 0 -365 0 -364 23 -3 c15 -2 22 -10 22 -26 0
-12 -6 -23 -12 -24 -7 -1 -43 -5 -80 -8 l-68 -6 0 26 c0 22 4 26 30 26 l30 0
0 369 c0 286 -3 370 -13 373 -10 3 -552 2 -610 -1 -16 -1 -17 -24 -15 -368 l3
-368 243 -3 242 -2 0 -25 0 -25 -240 0 c-185 0 -240 -3 -241 -12 -6 -78 -2
-318 6 -319 6 -1 20 -1 33 -2 l22 0 0 -373 0 -374 -25 0 -25 0 -2 347 -3 347
-568 0 c-313 1 -574 -2 -580 -6 -7 -4 -11 -128 -12 -400 0 -216 1 -401 3 -410
4 -17 40 -18 582 -18 l579 0 3 22 c2 13 12 22 26 24 20 4 22 0 22 -44 l0 -48
-187 0 c-120 1 -190 -3 -197 -10 -7 -6 -11 -58 -10 -132 0 -121 0 -122 -23
-122 -15 0 -23 6 -24 18 -1 9 -2 64 -2 122 -1 58 -5 110 -9 115 -7 11 -736 14
-753 3 -6 -4 -10 -87 -9 -205 l0 -198 385 0 384 0 3 28 c3 21 9 27 26 27 l23
0 -1 -250 0 -250 -23 0 c-18 0 -23 6 -24 28 -1 15 -2 97 -3 182 -2 85 -4 160
-4 165 -3 15 -751 13 -760 -2 -5 -8 -8 -456 -3 -521 1 -18 765 -13 767 6 1 6
2 21 3 32 1 14 8 20 24 20 22 0 23 -3 23 -85 1 -82 0 -85 -22 -85 -16 0 -24 7
-26 23 l-3 22 -385 0 -384 0 -1 -260 c0 -143 1 -268 4 -278 3 -16 27 -17 385
-15 l381 3 2 190 c1 248 -1 227 26 223 22 -3 22 -4 24 -198 0 -107 1 -201 2
-207 1 -9 17 -13 46 -13 41 0 45 -2 45 -25 l0 -25 -455 0 -455 0 -1 -22 c-3
-72 -4 -536 0 -550 3 -17 69 -18 1212 -18 960 0 1209 3 1210 13 3 38 4 545 1
560 -4 16 -29 17 -343 17 l-339 0 0 25 0 25 303 2 302 3 3 76 3 77 32 -2 32
-2 3 -76 c3 -75 3 -77 30 -80 l27 -3 1 -340 0 -340 -65 -5 -66 -5 -5 -130 -5
-131 -25 0 -25 0 -5 131 -5 130 -1137 3 -1138 2 -1 -22 c-3 -73 -4 -1786 0
-1800 3 -17 42 -18 652 -18 l649 0 0 -24 c0 -18 -7 -26 -22 -29 -20 -4 -19 -4
5 -6 25 -1 27 2 27 34 l0 35 -650 0 -650 0 0 910 0 910 1125 0 1125 0 0 -105
c0 -63 -4 -105 -10 -105 -5 0 -10 -20 -10 -45 0 -44 1 -45 33 -46 17 0 43 -2
57 -3 14 -2 31 -1 38 1 14 6 17 93 2 93 -6 0 -10 42 -10 105 l0 105 65 0 65 0
0 355 0 355 -30 0 c-29 0 -30 1 -30 50 0 28 4 50 10 50 5 0 9 39 8 93 -1 65
-3 79 -7 48 -4 -32 -11 -45 -24 -47 -9 -1 -15 2 -11 7 3 5 10 6 16 3 7 -5 8
-2 4 5 -6 9 -13 8 -27 -5 -10 -9 -27 -14 -38 -11 -10 2 -25 1 -32 -4 -9 -5 10
-9 49 -9 l62 0 -1 -37 c-1 -33 -2 -34 -8 -13 -6 21 -13 25 -46 25 -34 0 -40
-3 -43 -22 -2 -13 -9 -23 -15 -23 -8 0 -8 -3 1 -9 9 -5 12 -24 10 -52 l-3 -44
-270 -3 c-232 -2 -270 0 -278 13 -10 18 -83 21 -90 3 -4 -10 -6 -10 -6 0 -1
18 -80 16 -87 -3 -9 -22 -542 -23 -550 -1 -8 21 -180 21 -188 0 -3 -8 -12 -14
-21 -14 -13 0 -15 25 -15 180 0 113 4 180 10 180 6 0 10 20 10 45 l0 45 -39 0
c-22 0 -42 -4 -45 -9 -4 -5 11 -7 34 -4 l40 6 -1 -39 c-2 -31 -3 -33 -6 -11
-4 26 -8 28 -41 25 -29 -2 -38 -8 -43 -28 -6 -23 -7 -22 -8 9 -1 42 21 60 72
61 l37 0 0 45 c0 25 -4 45 -10 45 -5 0 -10 16 -10 35 0 19 4 35 10 35 5 0 9
41 9 95 0 54 -4 95 -9 95 -6 0 -10 80 -10 200 0 121 4 200 10 200 12 0 12 178
-1 185 -5 4 -9 51 -9 106 l0 99 195 0 195 0 0 30 c0 20 5 30 15 30 11 0 15 11
15 40 0 43 -3 46 -64 55 -21 3 -42 7 -46 10 -3 2 -7 -2 -7 -10 0 -17 6 -18 64
-16 43 2 43 2 43 -33 0 -20 -4 -36 -10 -36 -5 0 -10 11 -10 24 0 19 -6 25 -31
28 -27 4 -31 1 -36 -24 -4 -20 -10 -27 -20 -24 -8 4 -264 6 -569 6 l-554 0 0
400 0 400 570 0 570 0 0 -345 0 -345 34 0 c27 0 34 4 37 23 2 12 3 185 1 385
l-2 362 -30 0 -30 0 0 150 0 150 209 0 c129 0 212 -4 216 -10 9 -14 82 -12 88
3 4 10 6 10 6 0 1 -16 72 -18 87 -3 6 6 64 10 132 11 69 0 122 4 122 10 0 5
168 9 430 9 268 0 430 -4 430 -10 0 -5 39 -9 93 -8 60 1 78 4 52 7 -22 3 -41
12 -43 19 -1 8 2 11 9 6 7 -4 10 -2 7 7 -3 8 -11 13 -17 11 -7 -1 -12 7 -11
20 4 45 1 48 -45 48 -25 0 -45 -4 -45 -10 0 -6 -72 -10 -195 -10 l-195 0 0
350 0 350 280 0 280 0 0 -340 0 -340 -37 -2 -38 -1 45 -7 c31 -5 36 -7 17 -8
-26 -2 -28 -5 -25 -39 3 -35 4 -36 48 -40 25 -3 64 -2 88 2 40 6 42 8 42 41 0
31 -2 34 -30 34 l-30 0 0 350 0 350 275 0 275 0 0 -350 0 -350 -180 0 c-113 0
-180 4 -180 10 0 11 -90 14 -91 3 -1 -14 -1 -88 0 -100 1 -16 91 -18 91 -3 0
7 142 10 405 10 243 0 405 -4 405 -9 0 -5 41 -10 90 -10 50 0 90 5 90 10 0 5
14 9 30 9 17 0 30 -4 30 -10 0 -15 87 -12 93 3 4 10 6 10 6 0 1 -16 73 -17 89
-1 8 8 127 12 414 15 222 2 415 4 431 3 24 0 27 3 27 35 l0 35 -215 0 -214 0
-3 350 -3 350 283 0 282 0 0 -337 c0 -186 -4 -343 -8 -349 -4 -7 -16 -13 -26
-15 -19 -4 -40 -52 -28 -63 3 -3 16 -6 29 -6 12 0 23 -4 23 -10 0 -5 -16 -10
-35 -10 -29 0 -34 3 -33 23 2 47 -2 90 -8 84 -11 -11 -12 -91 -1 -104 14 -18
76 -16 83 2 8 21 74 21 74 -1 0 -12 11 -15 54 -12 47 2 53 5 45 20 -6 11 -5
19 3 24 7 5 8 3 3 -6 -6 -9 -4 -11 4 -5 9 5 10 10 2 18 -6 6 -11 24 -11 39 0
15 -4 28 -10 28 -5 0 -10 -25 -10 -55 l0 -55 -35 0 c-19 0 -35 5 -35 10 0 6 9
10 20 10 16 0 20 7 20 35 0 28 -4 35 -20 35 -20 0 -20 7 -20 348 l0 349 137 6
c75 4 201 7 280 7 l143 0 -2 -352 -3 -353 -189 -3 c-145 -2 -191 1 -198 10 -6
10 -8 10 -8 1 0 -7 -9 -13 -20 -13 -16 0 -20 -7 -20 -35 0 -28 4 -35 19 -35
11 0 22 -6 24 -12 4 -10 6 -10 6 0 1 9 96 12 441 12 l440 0 0 35 c0 31 -3 35
-27 35 -16 1 -110 0 -210 0 l-183 -1 0 356 0 355 158 0 c86 0 214 -3 285 -7
l127 -6 0 -343 c0 -308 -5 -386 -24 -339 -7 18 -75 21 -81 3 -2 -7 -7 -30 -10
-52 -3 -21 -7 -42 -10 -46 -2 -3 2 -7 10 -7 8 0 16 6 19 14 6 15 56 7 68 -11
5 -8 8 -7 8 2 0 8 16 12 44 12 26 0 46 -5 49 -12 4 -10 6 -10 6 0 1 6 12 12
26 12 22 0 25 4 25 35 0 31 -3 35 -25 35 -14 0 -25 5 -25 10 0 6 16 10 35 10
l35 0 0 -53 c0 -41 4 -54 15 -54 16 0 19 12 16 70 -3 36 -2 37 33 37 20 0 36
-4 36 -10 0 -5 -11 -10 -25 -10 -22 0 -25 -4 -25 -35 0 -30 3 -35 24 -35 13 0
27 -6 29 -12 4 -10 6 -10 6 0 1 16 831 18 831 2 0 -6 37 -10 90 -10 53 0 90 4
90 10 0 13 47 13 55 1 7 -13 185 -13 185 -1 0 14 843 13 857 -1 6 -6 28 -9 49
-6 l39 4 -45 2 c-36 2 -40 4 -20 10 20 5 26 14 28 43 3 33 1 37 -25 41 -23 3
-22 4 10 6 37 1 37 1 37 -40 0 -22 6 -47 14 -55 16 -16 96 -19 96 -4 0 6 27
10 60 10 l60 0 0 40 c0 38 -2 40 -30 40 l-30 0 0 355 0 355 308 -2 307 -3 3
-357 2 -358 -215 0 c-184 0 -215 2 -215 15 0 11 -11 15 -39 15 -43 0 -55 -10
-55 -50 -1 -14 -5 -31 -9 -37 -5 -7 -5 -14 0 -15 4 0 -12 -4 -37 -8 -37 -5
-30 -7 35 -6 44 0 68 1 53 3 -23 4 -50 33 -30 33 5 0 6 16 4 35 -4 34 -3 35
32 35 20 0 36 -4 36 -10 0 -5 -12 -10 -26 -10 -23 0 -25 -3 -22 -32 2 -24 9
-34 23 -37 11 -2 23 -8 27 -15 6 -8 8 -7 8 2 0 14 53 15 267 5 l141 -6 7 -96
c3 -53 8 -113 11 -133 6 -36 5 -38 -23 -38 -16 0 -35 6 -42 13 -11 10 -13 10
-7 0 5 -9 -1 -13 -18 -13 -24 0 -26 -4 -26 -43 l0 -44 428 -6 c235 -4 626 -10
870 -14 l442 -6 0 -209 c0 -160 -3 -208 -12 -208 -9 0 -10 -2 -2 -8 7 -4 13
-16 15 -27 4 -16 12 -20 44 -20 33 0 40 4 46 25 6 22 7 20 8 -11 1 -24 -4 -39
-14 -43 -8 -3 -15 -2 -15 2 0 4 -21 6 -46 4 -55 -5 -50 -17 5 -14 22 2 42 -2
46 -8 3 -6 11 -8 16 -5 5 4 8 -12 8 -37 -2 -30 -3 -35 -6 -15 -4 25 -8 27 -49
27 -35 0 -44 -4 -45 -17 -4 -68 -8 -88 -18 -91 -16 -5 -14 -92 2 -93 6 -1 29
-1 50 -1 20 0 37 -4 37 -9 0 -5 9 -4 20 3 12 8 20 24 20 40 l0 28 345 0 345 0
0 -295 0 -295 -337 0 c-186 0 -348 3 -361 6 l-23 7 1 211 c0 116 1 223 0 239
0 25 -3 27 -45 27 l-45 0 0 -240 c0 -132 -4 -240 -9 -240 -11 0 -20 -69 -14
-104 5 -23 10 -26 44 -26 32 0 39 3 39 20 0 11 5 20 10 20 6 0 10 -16 10 -35
l0 -35 -59 0 -60 0 -3 43 c-2 23 -5 0 -6 -50 -1 -54 3 -93 8 -93 6 0 10 -81
10 -205 0 -157 3 -205 13 -206 6 0 48 -6 92 -12 l80 -12 3 -200 c1 -110 0
-209 -2 -220 -5 -20 -11 -20 -288 -15 -362 6 -340 9 -336 -43 l3 -42 520 -8
c286 -4 575 -10 643 -13 l122 -6 0 -237 c0 -130 -3 -266 -7 -304 l-6 -67
-1214 2 -1215 3 2 320 c0 175 2 321 4 322 2 2 231 0 510 -3 412 -6 506 -10
506 -21 0 -9 14 -13 45 -13 l45 0 1 38 c1 20 1 43 0 50 -1 6 3 12 9 12 6 0 6
7 -2 20 -10 15 -24 20 -55 20 -25 0 -43 -5 -43 -11 0 -8 -145 -9 -549 -4 -309
4 -551 4 -553 -1 -3 -5 -7 -191 -9 -414 l-4 -405 88 -3 87 -3 0 -109 0 -110
45 0 c51 0 47 -12 45 138 l-1 82 1132 0 1132 0 -6 -372 c-4 -205 -9 -591 -12
-858 -3 -267 -8 -504 -11 -527 l-5 -43 -675 0 c-443 0 -674 3 -674 10 0 6 -21
10 -46 10 l-46 0 4 -54 c1 -30 0 -52 -4 -49 -5 2 -8 26 -8 54 l0 49 -39 0
c-22 0 -43 -4 -46 -10 -4 -6 -132 -10 -351 -10 l-344 0 0 60 c0 35 4 60 11 60
6 0 9 22 8 54 -3 63 -8 66 -84 55 l-50 -7 52 1 c69 1 78 -9 11 -12 -74 -3 -74
-11 0 -11 l62 0 -1 -37 c-2 -31 -3 -33 -6 -10 -4 25 -8 27 -49 27 -40 0 -44
-2 -44 -24 0 -13 -6 -27 -12 -29 -10 -4 -10 -6 0 -6 8 -1 12 -20 12 -61 l0
-59 -82 -3 -83 -3 -3 -367 -2 -368 80 0 80 0 0 -79 c0 -54 -4 -81 -12 -84 -10
-4 -10 -6 0 -6 6 -1 12 -12 12 -26 0 -23 4 -25 44 -25 41 0 45 2 49 28 3 23 4
21 6 -9 1 -41 -19 -56 -84 -62 -28 -3 -21 -4 23 -5 l62 -2 -1 -37 c-2 -31 -3
-33 -6 -10 -4 25 -8 27 -49 27 -40 0 -44 -2 -44 -24 0 -13 -6 -27 -12 -29 -10
-4 -10 -6 0 -6 6 -1 12 -8 12 -16 0 -12 -16 -15 -80 -15 l-80 0 0 -690 0 -690
235 0 235 0 0 -85 0 -85 1050 0 1050 0 0 35 c0 19 -5 44 -12 54 -9 15 -4 508
20 2158 18 1176 34 2199 37 2273 2 74 6 270 7 435 l1 300 -69 6 c-38 4 -187 7
-331 8 l-263 1 0 221 0 222 244 -5 244 -5 6 45 c3 25 6 159 6 298 l0 253 73 3
72 3 0 740 0 740 -280 -5 c-382 -7 -1148 -5 -1687 5 l-446 7 -6 37 c-4 20 -9
276 -13 570 l-5 533 -1592 -8 c-875 -4 -1607 -8 -1626 -8 -617 8 -1313 10
-3362 7z m5812 -408 l0 -345 -35 0 c-34 0 -35 -1 -35 -39 0 -22 4 -42 9 -45 5
-4 7 11 4 34 l-6 40 39 -1 c33 -1 35 -2 14 -8 -19 -5 -26 -14 -28 -39 -3 -29
0 -32 22 -32 14 0 26 -4 26 -10 0 -17 -62 -11 -76 8 -7 9 -14 34 -14 55 0 36
-1 37 -39 37 -22 0 -43 -4 -46 -10 -4 -6 -82 -10 -201 -10 l-194 0 0 350 0
350 168 3 c92 1 218 4 280 5 l112 2 0 -345z m-630 -15 l0 -350 -195 0 c-123 0
-195 4 -195 10 0 6 -20 10 -45 10 l-45 0 0 -39 c0 -22 4 -42 9 -45 5 -4 7 11
4 34 l-6 40 37 0 c20 0 36 -4 36 -10 0 -5 -12 -10 -26 -10 -22 0 -25 -3 -22
-32 2 -25 9 -34 28 -39 23 -6 22 -7 -9 -8 -42 -1 -60 21 -61 72 0 36 -1 37
-35 37 l-35 0 0 335 0 334 93 4 c50 1 176 4 280 5 l187 2 0 -350z m-6970 -4
c0 -189 -3 -351 -6 -360 -3 -9 -17 -16 -30 -16 -21 0 -24 -5 -24 -35 0 -31 3
-35 25 -35 14 0 25 -4 25 -10 0 -5 -15 -10 -33 -10 -38 0 -54 21 -60 80 -2 23
-4 15 -5 -22 l-2 -58 -35 0 c-19 0 -35 5 -35 10 0 6 11 10 25 10 22 0 25 4 25
35 0 31 -3 35 -26 35 -14 0 -23 4 -19 10 3 6 1 10 -4 10 -6 0 -11 -4 -11 -10
0 -6 -76 -10 -208 -10 l-209 0 -6 173 c-4 94 -7 256 -7 360 l0 187 310 0 310
0 0 -344z m640 -6 l0 -350 -194 0 c-119 0 -197 4 -201 10 -3 6 -24 10 -46 10
l-41 0 3 -45 c2 -24 -1 -48 -5 -52 -4 -4 -7 -3 -6 2 1 6 2 29 1 53 l-1 42 -40
0 -40 0 0 340 0 340 285 0 285 0 0 -350z m1830 320 c0 -27 3 -30 30 -30 l30 0
0 -310 0 -310 -85 0 c-50 0 -85 -4 -85 -10 0 -6 -68 -10 -185 -10 l-185 0 0
350 0 350 240 0 240 0 0 -30z m680 -320 l0 -350 -180 0 c-113 0 -180 4 -180
10 0 6 -5 10 -11 10 -5 0 -7 -4 -4 -10 4 -6 -5 -10 -19 -10 -23 0 -26 -4 -26
-35 0 -31 3 -35 25 -35 14 0 25 -4 25 -10 0 -17 -62 -11 -76 8 -7 9 -14 34
-14 55 0 37 -1 37 -40 37 l-40 0 0 294 c0 161 -3 314 -6 340 l-7 46 277 0 276
0 0 -350z m2550 6 l0 -343 -46 -7 c-26 -3 -109 -6 -184 -6 -113 0 -139 3 -144
15 -3 10 -19 15 -46 15 l-42 0 3 -45 c2 -24 -1 -48 -5 -52 -4 -4 -7 -3 -6 2 1
6 2 29 1 53 l-1 42 -45 0 -45 0 0 335 0 335 280 0 280 0 0 -344z m640 9 l0
-335 -42 -1 c-24 -1 -64 -1 -90 1 -30 1 -48 -2 -48 -9 0 -8 -61 -11 -195 -11
l-195 0 0 345 0 345 285 0 285 0 0 -335z m-1300 -355 c0 -5 -11 -10 -25 -10
-20 0 -25 -5 -25 -24 0 -13 -8 -30 -17 -37 -14 -12 -16 -12 -8 1 5 8 8 29 6
47 -2 32 -1 33 33 33 20 0 36 -4 36 -10z m1200 -40 l0 -50 -37 1 c-24 1 -29 3
-15 6 18 4 22 11 22 39 0 27 -4 34 -20 34 -11 0 -20 5 -20 10 0 6 16 10 35 10
l35 0 0 -50z m90 40 c0 -5 -9 -10 -20 -10 -16 0 -20 -7 -20 -34 0 -28 4 -35
23 -39 13 -3 6 -5 -17 -6 -32 -1 -37 1 -27 13 8 10 9 16 1 21 -5 3 -10 19 -10
36 0 27 3 29 35 29 19 0 35 -4 35 -10z m140 -40 l0 -50 -37 1 c-31 2 -33 3
-10 6 23 4 27 9 27 39 0 27 -4 34 -19 34 -11 0 -23 5 -26 10 -4 6 8 10 29 10
l36 0 0 -50z m-6330 -10 l0 -50 -37 1 c-31 2 -33 3 -10 6 23 4 27 9 27 39 0
30 -3 34 -25 34 -14 0 -25 5 -25 10 0 6 16 10 35 10 l35 0 0 -50z m95 40 c-3
-5 -15 -10 -26 -10 -15 0 -19 -7 -19 -34 0 -30 4 -35 28 -39 23 -3 22 -4 -8
-6 l-36 -1 -2 50 -2 50 36 0 c21 0 33 -4 29 -10z m955 -40 l0 -50 -37 1 c-33
1 -34 2 -13 8 20 6 25 13 25 41 0 28 -5 35 -25 41 -21 6 -20 7 13 8 l37 1 0
-50z m330 41 c-19 -5 -26 -14 -28 -39 -3 -29 0 -32 22 -32 14 0 26 -4 26 -10
0 -17 -67 -12 -74 6 -3 8 -2 13 3 10 5 -4 7 12 4 34 l-6 40 39 -1 c33 -1 35
-2 14 -8z m920 -41 l0 -50 -35 0 c-19 0 -35 5 -35 10 0 6 9 10 20 10 16 0 20
7 20 34 0 28 -4 35 -22 39 -14 3 -9 5 15 6 l37 1 0 -50z m73 43 c-19 -4 -23
-11 -23 -39 0 -27 4 -34 20 -34 11 0 20 -4 20 -10 0 -5 -16 -10 -36 -10 -32 0
-35 2 -24 15 10 12 10 19 2 27 -7 7 -12 22 -12 35 0 20 5 23 38 22 23 -1 28
-3 15 -6z m167 -43 l0 -50 -35 0 c-19 0 -35 5 -35 10 0 6 11 10 25 10 22 0 25
4 25 34 0 30 -4 35 -27 39 -23 3 -21 4 10 6 l37 1 0 -50z m8038 -712 l-3 -303
-342 -3 -343 -2 -1 42 c0 24 0 64 1 91 1 28 -3 47 -9 47 -12 0 -16 293 -5 373
l7 46 136 4 c75 1 232 4 349 5 l212 2 -2 -302z m-11738 -707 c0 -56 -4 -103
-10 -106 -5 -3 -10 -24 -10 -46 l0 -41 45 3 c24 2 48 -1 52 -5 4 -4 4 -7 -2
-6 -5 1 -29 2 -52 1 l-43 -1 0 -45 0 -45 -360 0 -360 0 0 195 0 195 370 0 370
0 0 -99z m42 -159 c33 -3 37 -1 41 25 3 25 4 24 6 -7 l1 -36 -50 -2 -50 -2 1
37 c1 33 2 34 8 13 5 -20 14 -26 43 -28z m47 -89 c-1 -33 -2 -34 -8 -13 -6 20
-13 25 -41 25 -28 0 -35 -5 -41 -25 -6 -21 -7 -20 -8 13 l-1 37 50 0 50 0 -1
-37z m-89 -283 c0 -100 -4 -160 -10 -160 -5 0 -10 -20 -10 -45 l0 -45 39 0
c22 0 42 4 45 9 4 5 -11 7 -34 4 l-40 -6 1 39 c1 33 2 35 8 14 6 -20 13 -25
41 -25 28 0 35 5 41 25 6 23 7 22 8 -9 1 -42 -21 -60 -71 -61 -37 0 -38 -1
-38 -38 0 -21 5 -43 12 -50 9 -9 -71 -12 -360 -12 l-372 0 0 260 0 260 370 0
370 0 0 -160z m11590 -57 c0 -120 -3 -235 -7 -256 l-6 -39 -271 5 c-149 2
-281 8 -293 12 -23 7 -23 10 -23 171 0 139 2 164 15 164 11 0 15 11 13 43 l-1
42 -4 -37 c-4 -39 -23 -54 -23 -18 0 17 -7 20 -44 20 -38 0 -45 -3 -49 -22 -3
-14 -5 -7 -6 16 -1 34 1 37 15 25 13 -10 17 -10 24 1 5 8 22 15 39 16 42 3 51
11 51 45 l0 29 285 0 285 0 0 -217z m-11501 -250 c-2 -32 -3 -33 -6 -10 -4 26
-8 28 -41 25 -29 -2 -38 -8 -43 -28 -6 -21 -7 -20 -8 13 l-1 37 50 0 50 0 -1
-37z m-108 -165 c0 -24 0 -62 -1 -84 -1 -23 3 -45 9 -49 7 -4 11 -69 11 -186
l0 -179 -370 0 -370 0 0 270 0 270 360 0 360 0 1 -42z m59 -3 c28 0 35 5 41
25 6 21 7 20 8 -12 l1 -38 -50 0 -50 0 1 38 c1 32 2 33 8 12 6 -20 13 -25 41
-25z m10374 -391 c3 -8 2 -13 -3 -10 -4 3 -6 -17 -3 -44 l5 -50 -37 0 c-20 0
-36 5 -36 10 0 6 11 10 25 10 23 0 25 4 25 40 0 36 -2 40 -25 40 -14 0 -25 5
-25 10 0 17 67 12 74 -6z m-10211 -99 c4 -8 1 -17 -5 -21 -7 -5 -8 -2 -3 6 6
9 4 11 -4 5 -9 -5 -10 -10 -2 -18 6 -6 11 -24 11 -39 0 -16 5 -28 13 -28 8 0
11 16 9 55 l-4 55 36 0 c20 0 36 -4 36 -10 0 -5 -9 -10 -20 -10 -16 0 -20 -7
-20 -35 0 -28 4 -35 20 -35 11 0 20 -6 21 -12 0 -10 2 -10 6 0 6 15 553 18
553 2 0 -5 5 -10 11 -10 5 0 7 5 4 10 -4 6 5 10 19 10 23 0 26 4 26 35 0 31
-3 35 -25 35 -14 0 -25 5 -25 10 0 6 16 10 36 10 25 0 35 -4 31 -12 -2 -7 -1
-33 4 -58 l8 -45 -3 48 c-2 26 0 47 3 47 4 0 8 -19 10 -42 3 -63 11 -60 11 5
l0 57 35 0 c19 0 35 -4 35 -10 0 -5 -11 -10 -25 -10 -22 0 -25 -4 -25 -35 0
-31 3 -35 25 -35 14 0 25 -6 26 -12 0 -10 2 -10 6 0 4 9 76 12 314 12 l309 0
0 -285 0 -285 -1200 0 -1200 0 0 285 0 285 430 0 c337 0 430 -3 431 -12 0 -10
2 -10 6 0 2 6 13 12 24 12 15 0 19 7 19 35 0 28 -4 35 -20 35 -11 0 -20 5 -20
10 0 16 67 12 73 -5z m697 -40 l0 -25 -320 0 -320 0 0 25 0 25 320 0 320 0 0
-25z m620 -920 c0 -22 4 -25 40 -25 36 0 40 3 40 25 0 14 5 25 10 25 17 0 12
-67 -6 -74 -8 -3 -13 -2 -10 3 3 4 -17 6 -44 3 l-50 -5 0 37 c0 20 5 36 10 36
6 0 10 -11 10 -25z m7950 -1474 c0 -62 4 -90 13 -93 6 -2 175 -3 375 -2 l362
0 0 -33 0 -33 -457 -2 -458 -3 -3 -287 c-1 -159 1 -288 5 -289 5 0 217 -2 473
-2 l465 -2 3 -32 3 -33 -395 0 -396 0 0 -110 0 -110 -35 0 -34 0 -3 108 -3
107 -76 5 -76 5 1 355 1 355 65 2 c36 0 73 2 83 2 15 1 17 12 17 91 l0 90 35
0 35 0 0 -89z m780 -131 c0 -43 4 -59 13 -57 21 4 26 19 20 69 l-6 48 39 -1
c33 -1 35 -2 14 -8 -21 -6 -26 -14 -28 -49 -3 -39 -1 -42 22 -42 14 0 26 -6
27 -12 0 -10 2 -10 6 0 2 6 20 12 39 12 l34 0 0 -95 c0 -54 -4 -95 -10 -95
-12 0 -12 -178 1 -185 5 -4 9 -46 9 -96 0 -82 -1 -89 -20 -89 -11 0 -20 5 -20
10 0 6 -21 10 -46 10 l-45 0 2 -50 c2 -27 -1 -53 -5 -57 -4 -5 -7 -3 -6 2 1 6
2 31 1 58 l-1 47 -45 0 c-25 0 -45 -4 -45 -10 0 -7 -155 -10 -445 -10 l-445 0
0 280 0 280 426 0 c395 0 428 -1 440 -17 13 -17 14 -17 8 0 -5 13 -1 17 20 17
24 0 26 3 26 44 0 41 -2 45 -27 49 -23 3 -21 4 10 6 l37 1 0 -60z m1460 -289
c0 -137 -3 -263 -6 -280 l-6 -31 -589 0 -589 0 0 89 c0 71 3 90 16 95 11 4 14
17 12 43 l-3 38 -53 1 c-69 1 -76 10 -10 13 28 1 55 4 60 7 15 9 9 74 -7 80
-12 5 -15 25 -15 93 0 48 3 91 7 94 3 4 271 7 595 7 l588 0 0 -249z m-1232 1
c39 -3 42 -1 42 22 0 14 5 26 10 26 6 0 10 -16 10 -35 l0 -35 -60 0 -60 0 1
38 c1 32 2 33 8 12 6 -21 14 -26 49 -28z m62 -87 c0 -19 -4 -35 -10 -35 -5 0
-10 12 -10 26 0 23 -3 25 -42 22 -35 -2 -43 -7 -49 -28 -6 -22 -7 -21 -8 10
l-1 36 60 2 60 3 0 -36z m-260 -273 c0 -46 3 -59 15 -59 17 0 18 5 15 70 l-2
47 39 -1 c30 -2 32 -3 11 -6 -26 -4 -28 -8 -28 -49 0 -40 2 -44 25 -44 14 0
25 -6 26 -12 0 -10 2 -10 6 0 4 9 145 12 659 12 l654 0 0 -67 c1 -201 -22
-1713 -26 -1740 l-5 -33 -944 0 -945 0 0 85 0 85 -235 0 -235 0 0 600 0 600
80 0 80 0 0 60 c0 33 4 60 10 60 5 0 9 41 9 95 0 54 -4 95 -9 95 -6 0 -10 36
-10 80 l0 80 365 0 c285 0 365 -3 366 -12 0 -10 2 -10 6 0 2 6 16 12 29 12 23
0 25 3 22 42 -2 35 -7 43 -28 49 -21 6 -20 7 13 8 l37 1 0 -58z"/>
<path d="M2150 12012 c0 -22 4 -43 9 -46 5 -4 7 12 4 36 -8 57 -13 61 -13 10z"/>
<path d="M4940 12032 c0 -22 4 -43 9 -46 5 -4 7 12 4 36 -8 57 -13 61 -13 10z"/>
<path d="M7128 12073 c12 -2 32 -2 45 0 12 2 2 4 -23 4 -25 0 -35 -2 -22 -4z"/>
<path d="M9948 12073 c12 -2 32 -2 45 0 12 2 2 4 -23 4 -25 0 -35 -2 -22 -4z"/>
<path d="M3628 12063 c12 -2 32 -2 45 0 12 2 2 4 -23 4 -25 0 -35 -2 -22 -4z"/>
<path d="M3628 11953 c12 -2 32 -2 45 0 12 2 2 4 -23 4 -25 0 -35 -2 -22 -4z"/>
<path d="M5868 11953 c12 -2 32 -2 45 0 12 2 2 4 -23 4 -25 0 -35 -2 -22 -4z"/>
<path d="M10291 11713 c-1 -10 -260 -13 -1261 -13 l-1260 0 0 -95 0 -95 -47
-1 c-27 0 -69 0 -95 1 -29 1 -48 -3 -48 -9 0 -6 -7 -11 -15 -11 -12 0 -15 17
-15 90 l0 90 -360 0 c-198 0 -544 0 -770 0 -225 0 -437 0 -470 0 l-60 0 0 -90
c0 -55 -4 -90 -10 -90 -6 0 -13 7 -16 15 -4 10 -19 14 -48 13 l-41 -1 38 -4
c38 -4 53 -23 17 -23 -17 0 -20 -7 -20 -46 0 -25 4 -43 9 -40 5 3 23 3 40 0
l31 -6 0 -244 c0 -189 -3 -244 -12 -244 -9 0 -10 -2 -2 -8 7 -4 13 -16 15 -27
3 -14 13 -21 36 -23 17 -2 37 -11 45 -20 11 -15 11 -16 -2 -7 -9 6 -34 8 -60
4 -49 -7 -46 -9 15 -13 22 -2 40 -4 40 -5 0 -2 7 -4 16 -6 19 -3 21 22 2 29
-15 6 -7 56 11 68 8 5 7 8 -1 8 -10 0 -13 74 -13 335 l0 335 350 0 350 0 -2
-432 -3 -433 -345 0 -345 0 -3 33 c-3 31 -5 32 -48 32 l-44 0 0 -465 0 -465
-60 0 c-33 0 -60 4 -60 10 0 5 -39 9 -92 8 -51 -1 -74 -4 -50 -6 36 -3 41 -6
32 -17 -13 -16 -4 -39 11 -29 5 3 9 2 8 -3 -1 -4 -1 -25 0 -45 l1 -38 45 0
c25 0 45 5 45 10 0 6 27 10 60 10 l60 0 0 -70 0 -70 835 0 835 0 0 65 0 65 70
0 70 0 0 45 0 45 -115 0 -115 0 0 -65 0 -65 -350 0 -350 0 0 940 0 940 345 0
345 0 0 -90 0 -90 59 0 c38 0 61 -4 64 -12 4 -10 6 -10 6 0 1 6 10 12 21 12
17 0 20 7 20 44 0 38 -3 45 -22 49 -14 3 -7 5 16 6 32 1 37 -1 27 -13 -8 -10
-9 -16 -1 -21 5 -3 10 -24 10 -46 0 -21 5 -39 10 -39 6 0 10 27 10 60 l0 60
38 -1 c23 -1 28 -3 15 -6 -20 -4 -23 -11 -23 -49 0 -37 3 -44 19 -44 11 0 22
-6 24 -12 4 -10 6 -10 6 0 1 8 18 12 51 12 l50 0 0 105 0 105 280 0 280 0 0
-955 0 -955 -195 0 -195 0 0 65 0 65 -100 0 c-57 0 -100 4 -100 10 0 5 -39 9
-92 8 -66 -1 -80 -3 -49 -7 32 -4 45 -11 47 -24 1 -9 -2 -15 -7 -11 -5 3 -6
10 -3 16 5 7 2 8 -5 4 -9 -6 -8 -13 5 -27 9 -10 14 -27 11 -38 -2 -10 -1 -25
4 -32 5 -9 9 10 9 49 l0 62 38 -1 c32 -1 33 -2 12 -8 -21 -6 -25 -13 -25 -46
0 -32 4 -40 20 -44 11 -2 23 -8 27 -15 6 -8 8 -7 8 2 0 8 18 12 55 12 l55 0 0
-65 0 -65 873 2 872 3 3 50 c4 81 9 95 38 95 23 0 25 3 22 42 -2 35 -7 43 -28
49 -21 6 -20 7 13 8 l37 1 0 -59 0 -60 -37 -3 c-21 -2 3 -4 52 -4 50 0 71 2
47 4 -37 3 -41 5 -32 22 7 13 6 21 -5 30 -8 7 -15 28 -15 46 0 34 -1 34 -45
34 -25 0 -45 -4 -45 -9 0 -6 -21 -11 -47 -13 l-48 -3 -3 -72 -3 -73 -539 0
-540 0 0 955 0 955 830 0 830 0 0 -175 0 -175 -98 0 -99 0 -6 -112 c-4 -62 -7
-207 -7 -323 0 -115 -3 -382 -7 -592 l-6 -383 -64 0 -63 0 0 -45 c0 -41 2 -45
25 -46 14 -1 31 -2 38 -3 8 -1 14 -25 17 -71 l5 -70 925 0 925 0 3 823 2 822
-380 0 -380 0 0 -45 0 -45 335 0 335 0 0 -280 0 -280 -405 0 -405 0 0 283 c0
186 4 277 10 267 6 -9 10 -10 10 -3 0 6 10 13 23 15 17 2 23 11 27 38 4 26 10
35 24 35 11 0 20 7 21 16 3 19 -22 21 -29 2 -6 -15 -56 -7 -68 11 -5 8 -8 7
-8 -1 0 -10 -54 -13 -235 -13 l-235 0 0 -45 c0 -45 0 -45 35 -45 l35 0 0 -395
0 -394 -67 -3 -68 -3 -3 -332 -2 -333 -170 0 -170 0 0 25 c0 20 5 25 23 25
l24 0 6 383 c4 210 7 477 7 592 0 116 3 261 7 323 l6 112 104 0 c76 0 103 -3
103 -12 0 -9 2 -10 8 -2 4 7 16 13 27 15 14 3 21 14 25 39 4 26 10 35 24 35
11 0 20 8 22 17 2 19 -15 20 -31 1 -12 -14 -65 -6 -65 11 0 6 -5 4 -10 -4 -6
-10 -10 44 -10 163 0 151 2 177 15 177 8 0 15 -4 15 -10 0 -11 90 -14 91 -2 0
4 2 25 3 47 2 22 4 40 5 40 2 0 4 7 6 16 3 19 -22 21 -29 2 -4 -9 -1 -11 6 -7
7 5 8 3 3 -7 -5 -7 -8 -30 -6 -51 3 -38 2 -38 -36 -37 -32 1 -34 2 -13 8 19 5
26 16 31 44 7 42 4 47 -27 47 -12 0 -25 6 -27 13 -4 10 -6 10 -6 0z m47 -48
c0 -30 -13 -40 -53 -40 l-30 0 -3 -188 -2 -187 34 0 c32 0 34 -2 33 -35 l-1
-35 -132 0 c-106 0 -133 -3 -137 -15 -4 -8 -7 -171 -8 -362 0 -191 -3 -368 -4
-393 -2 -25 -4 -179 -5 -342 l-2 -298 -24 0 c-16 0 -24 -6 -25 -17 -1 -10 -2
-25 -3 -33 0 -8 4 -18 9 -22 18 -14 343 -9 351 4 4 7 8 159 8 338 l1 325 70 0
70 0 0 405 0 405 -37 3 c-36 3 -38 5 -38 38 l0 34 253 -2 252 -3 0 -30 c0 -27
-4 -30 -33 -33 l-32 -3 2 -292 3 -292 410 0 410 0 3 293 2 292 -335 0 -335 0
0 35 0 35 370 0 370 0 0 -810 0 -810 -920 0 -919 0 -3 68 -3 67 -37 3 c-36 3
-38 5 -38 36 l0 33 61 -2 c33 0 62 2 65 6 2 3 6 211 10 460 3 250 7 510 9 579
2 69 3 180 4 247 l1 122 102 3 102 3 0 168 c1 93 -2 176 -5 185 -6 16 -66 17
-838 16 -457 0 -834 -4 -838 -8 -11 -11 -9 -1926 2 -1927 60 -6 1075 -3 1088
4 14 6 17 21 17 76 l0 67 53 -1 c74 -3 73 -2 72 -32 0 -23 -5 -29 -30 -33 -30
-5 -30 -6 -33 -78 l-3 -72 -859 0 -860 0 0 65 0 64 -82 3 -83 3 0 30 1 30 117
3 116 3 3 -68 3 -67 200 0 200 0 3 967 c1 532 -1 967 -5 968 -60 7 -566 2
-571 -6 -4 -5 -7 -53 -7 -105 l0 -95 -62 -3 -63 -3 0 36 c0 32 2 35 30 35 l30
0 0 105 0 105 1279 0 1279 0 0 -25z m-2798 -95 l0 -90 40 0 c39 0 40 -1 40
-35 l0 -35 -75 0 -74 0 -3 93 -3 92 -345 1 c-190 1 -349 -2 -355 -7 -7 -5 -9
-330 -9 -946 1 -516 2 -941 3 -945 1 -5 163 -8 361 -8 l360 0 0 65 0 65 105 0
105 0 0 -35 0 -35 -70 0 -70 0 0 -63 0 -63 -822 0 -823 1 -5 70 -5 70 -85 5
c-82 5 -85 6 -85 30 0 24 2 25 85 30 l85 5 3 468 2 467 34 0 c32 0 35 -3 38
-32 l3 -33 355 0 355 0 0 445 0 445 -355 0 -355 0 -5 -365 -5 -365 -32 -2 -33
-2 -2 277 c-3 238 -5 277 -18 278 -8 1 -25 2 -37 2 -18 2 -23 8 -23 31 0 27 3
30 38 33 l37 3 3 88 3 87 819 0 820 0 0 -90z m-1780 -1720 c0 -5 -11 -10 -25
-10 -22 0 -25 -4 -25 -40 0 -36 3 -40 25 -40 14 0 25 -4 25 -10 0 -5 -16 -10
-35 -10 l-35 0 0 60 0 60 35 0 c19 0 35 -4 35 -10z m4035 -69 c3 -5 2 -12 -3
-15 -5 -3 -9 1 -9 9 0 17 3 19 12 6z"/>
<path d="M10557 11173 c-4 -3 -7 -201 -7 -439 l0 -433 -67 -3 -68 -3 0 -300 0
-300 630 0 630 0 0 415 0 415 -447 3 -448 2 0 325 0 325 -108 0 c-60 0 -112
-3 -115 -7z m213 -328 l0 -325 448 -2 447 -3 3 -402 2 -403 -625 0 -625 0 2
288 3 287 70 5 70 5 3 438 2 437 100 0 100 0 0 -325z"/>
<path d="M5975 10631 c-3 -2 -5 -132 -5 -288 l0 -283 358 2 357 3 0 285 0 285
-353 1 c-194 0 -355 -2 -357 -5z m703 -283 l-3 -273 -347 -3 -348 -2 0 275 0
275 350 0 350 0 -2 -272z"/>
<path d="M5970 9840 l0 -150 358 2 357 3 0 145 0 145 -357 3 -358 2 0 -150z
m708 3 l-3 -138 -347 -3 -348 -2 0 140 0 140 350 0 351 0 -3 -137z"/>
<path d="M3334 11675 c-5 -13 -91 -15 -685 -15 l-679 0 0 -240 c0 -153 -4
-240 -10 -240 -5 0 -10 -21 -10 -46 l0 -46 54 4 c30 1 52 0 49 -4 -2 -5 -26
-8 -54 -8 l-49 0 0 -39 c0 -22 5 -43 10 -46 6 -4 10 -117 10 -306 l0 -299
-200 0 -200 0 2 -477 3 -478 285 -3 c169 -1 288 -6 294 -12 6 -6 28 -10 49
-10 l39 0 -4 54 c-1 30 0 52 5 49 4 -2 7 -26 7 -54 l0 -49 45 0 c25 0 45 5 45
10 0 6 85 10 235 10 l235 0 0 -55 0 -55 45 0 45 0 0 139 0 139 183 6 c176 5
643 16 720 16 l37 0 0 535 c0 350 3 535 10 535 11 0 14 90 3 90 -5 1 -32 3
-60 5 -52 3 -78 -7 -47 -19 10 -4 13 -2 8 6 -5 7 -3 8 7 3 7 -5 30 -8 51 -6
38 3 38 2 37 -36 -1 -32 -2 -34 -8 -13 -5 19 -16 26 -44 31 -42 7 -47 4 -47
-27 0 -12 -6 -25 -12 -27 -10 -4 -10 -6 0 -6 8 -1 12 -20 12 -61 l0 -60 -455
0 -455 0 0 155 0 155 453 -2 452 -3 3 -27 c3 -26 7 -28 48 -28 l44 0 0 420 0
420 -159 0 c-135 0 -160 2 -165 16 -4 11 -17 14 -43 12 l-38 -3 0 -52 c0 -28
-3 -49 -7 -46 -5 2 -8 26 -8 54 l0 49 -40 0 c-27 0 -43 -5 -46 -15z m76 -55
l0 -60 -37 1 c-33 1 -34 2 -13 8 21 6 26 14 28 49 3 39 1 42 -22 42 -14 0 -26
5 -26 10 0 6 16 10 35 10 l35 0 0 -60z m100 50 c0 -5 -12 -10 -26 -10 -23 0
-25 -3 -22 -42 2 -35 7 -43 28 -49 22 -6 21 -7 -10 -8 l-36 -1 -2 60 -3 60 36
0 c19 0 35 -4 35 -10z m-132 -52 c-2 -24 -8 -33 -21 -33 -18 0 -19 -16 -17
-309 0 -170 2 -312 4 -315 3 -5 370 -6 409 -2 4 1 7 141 7 311 0 288 -1 310
-17 311 -10 1 -74 2 -143 2 l-125 2 -3 33 -3 32 178 -2 178 -3 1 -407 0 -408
-32 0 c-28 0 -33 4 -36 28 l-3 27 -464 0 -465 0 0 -153 c-1 -85 2 -158 5 -163
3 -5 195 -8 465 -7 l459 3 5 85 c5 88 4 86 51 82 13 -2 15 -62 15 -552 l0
-550 -160 -1 c-89 -1 -186 -3 -216 -4 -30 -1 -163 -4 -295 -5 -132 -2 -246 -6
-252 -8 -10 -3 -13 -41 -13 -143 l0 -139 -35 0 -34 0 -3 58 -3 57 -262 3 -263
2 0 30 c0 27 2 29 48 32 l47 3 3 398 2 397 -370 0 -370 0 0 -400 0 -400 275 0
275 0 0 -30 0 -30 -310 0 -310 0 0 465 0 465 199 0 c181 0 199 2 202 18 3 9 4
158 4 330 l-1 312 33 0 33 0 0 -330 0 -330 203 -2 202 -3 1 -50 c1 -27 2 -56
3 -62 1 -10 38 -13 151 -13 l150 0 0 664 c0 522 -3 665 -12 668 -7 2 -166 3
-353 3 l-340 -1 -3 -227 -2 -227 -33 0 -33 0 0 260 0 260 699 0 698 0 -3 -32z
m-630 -700 l-3 -653 -137 -3 -137 -3 -3 63 -3 63 -202 3 -203 2 0 299 c0 256
2 300 15 305 18 6 21 71 4 82 -8 4 -8 9 0 17 17 17 14 77 -4 83 -13 5 -15 37
-15 200 l0 194 345 0 345 0 -2 -652z m728 632 c24 0 44 5 44 10 0 6 45 10 115
10 l115 0 0 -300 0 -300 -200 0 -200 0 0 290 0 290 35 0 c21 0 35 5 36 13 0
10 2 10 6 0 3 -8 23 -13 49 -13z m-1458 -428 c39 -3 42 -1 42 22 0 14 5 26 10
26 6 0 10 -15 10 -33 l0 -33 -60 -2 -60 -3 1 38 c1 32 2 34 8 13 6 -21 14 -26
49 -28z m62 -87 c0 -19 -4 -35 -10 -35 -5 0 -10 12 -10 26 0 23 -3 25 -42 22
-35 -2 -43 -7 -49 -28 -6 -21 -7 -20 -8 13 l-1 37 60 0 60 0 0 -35z m300
-1120 c0 -378 0 -385 -20 -385 -11 0 -20 5 -20 10 0 15 -90 13 -91 -2 0 -10
-2 -10 -6 0 -6 14 -79 16 -88 2 -4 -6 -98 -10 -251 -10 l-244 0 0 385 0 385
360 0 360 0 0 -385z m-152 -435 l3 -60 -36 0 c-19 0 -35 5 -35 10 0 6 11 10
25 10 23 0 25 4 25 40 0 36 -2 40 -25 40 -14 0 -25 5 -25 10 0 6 15 10 33 10
l33 0 2 -60z m102 50 c0 -5 -11 -10 -25 -10 -22 0 -25 -4 -25 -40 0 -36 3 -40
25 -40 14 0 25 -4 25 -10 0 -5 -16 -10 -35 -10 l-35 0 0 60 0 60 35 0 c19 0
35 -4 35 -10z"/>
<path d="M2847 11582 c-21 -4 -19 29 -20 -321 -2 -243 0 -294 12 -299 8 -3
107 -5 220 -5 l206 -1 3 312 c1 172 -1 312 -5 313 -23 3 -402 3 -416 1z m413
-312 l0 -300 -210 0 -210 0 0 300 0 300 210 0 210 0 0 -300z"/>
<path d="M2847 10491 c-21 -7 -22 -15 -21 -128 l0 -108 465 0 464 0 3 118 c2
89 0 117 -10 118 -44 3 -890 3 -901 0z m901 -118 l-3 -108 -452 -3 -453 -2 0
110 0 110 455 0 456 0 -3 -107z"/>
<path d="M2466 10174 c-7 -7 -11 -90 -10 -245 1 -129 2 -238 3 -243 1 -9 1149
3 1289 13 9 1 12 56 12 241 0 185 -3 240 -12 241 -7 0 -296 1 -642 2 -437 1
-633 -1 -640 -9z m1284 -233 l0 -228 -207 -7 c-448 -13 -884 -18 -976 -11
l-97 7 0 234 0 234 640 0 640 0 0 -229z"/>
<path d="M2457 9612 c-2 -6 -2 -24 2 -85 1 -16 15 -17 179 -15 l177 3 3 48 c2
33 -1 47 -10 48 -133 5 -348 6 -351 1z m353 -47 l0 -35 -170 0 -170 0 0 35 0
35 170 0 170 0 0 -35z"/>
<path d="M4110 10645 l0 -1035 150 0 c83 0 335 0 560 0 226 0 466 0 535 0
l125 0 0 70 0 70 49 0 c27 0 63 3 80 6 28 6 31 10 31 45 0 37 -1 38 -42 44
-24 3 -81 5 -128 3 l-85 -3 -3 -72 -3 -73 -589 0 -590 0 0 940 0 940 695 0
694 0 3 -87 3 -88 43 -3 c23 -2 42 -7 42 -12 0 -5 42 -8 93 -7 50 1 73 3 49 5
-38 3 -42 5 -31 18 10 13 10 17 -1 24 -8 5 -15 22 -16 39 -3 43 -11 51 -54 51
l-39 0 -3 78 -3 77 -782 3 -783 2 0 -1035z m1560 925 c0 -89 0 -90 25 -90 21
0 25 -5 25 -30 0 -32 1 -31 -75 -34 l-40 -1 -3 93 -3 92 -704 0 -705 0 -1 -37
c-1 -49 -1 -1866 0 -1873 1 -4 1175 -5 1204 -1 4 1 7 33 7 71 l0 70 115 0 115
0 0 -30 0 -29 -82 -3 -83 -3 -3 -72 -3 -73 -669 0 -670 0 0 1020 0 1020 775 0
775 0 0 -90z m90 -120 l0 -60 -35 0 c-19 0 -35 5 -35 11 0 6 9 9 20 6 18 -5
20 0 20 39 0 37 -3 44 -20 44 -11 0 -20 5 -20 10 0 6 16 10 35 10 l35 0 0 -60z"/>
<path d="M10408 11593 c12 -2 32 -2 45 0 12 2 2 4 -23 4 -25 0 -35 -2 -22 -4z"/>
<path d="M10348 11194 c2 -25 6 -43 9 -40 10 9 7 80 -3 83 -5 2 -8 -16 -6 -43z"/>
<path d="M10948 11194 c2 -25 6 -43 9 -40 10 9 7 80 -3 83 -5 2 -8 -16 -6 -43z"/>
<path d="M12133 11030 c0 -25 2 -35 4 -22 2 12 2 32 0 45 -2 12 -4 2 -4 -23z"/>
<path d="M1713 10890 c0 -25 2 -35 4 -22 2 12 2 32 0 45 -2 12 -4 2 -4 -23z"/>
<path d="M3853 10830 c0 -25 2 -35 4 -22 2 12 2 32 0 45 -2 12 -4 2 -4 -23z"/>
<path d="M12133 10790 c0 -25 2 -35 4 -22 2 12 2 32 0 45 -2 12 -4 2 -4 -23z"/>
<path d="M12262 10800 c0 -19 2 -27 5 -17 2 9 2 25 0 35 -3 9 -5 1 -5 -18z"/>
<path d="M9808 9863 c12 -2 32 -2 45 0 12 2 2 4 -23 4 -25 0 -35 -2 -22 -4z"/>
<path d="M5608 9733 c12 -2 32 -2 45 0 12 2 2 4 -23 4 -25 0 -35 -2 -22 -4z"/>
<path d="M11668 9213 c12 -2 32 -2 45 0 12 2 2 4 -23 4 -25 0 -35 -2 -22 -4z"/>
<path d="M3370 8860 c0 -160 -4 -250 -10 -250 -11 0 -14 -90 -2 -91 13 -1 87
-1 100 0 15 1 17 91 2 91 -6 0 -10 78 -10 215 l0 215 355 0 355 0 0 -295 0
-295 -344 0 -345 0 -4 33 c-3 29 -4 29 -5 -8 l-2 -40 355 3 c271 2 355 5 356
15 4 54 3 581 -2 588 -3 5 -156 8 -370 7 l-364 -3 -5 -240 c-4 -183 -8 -240
-17 -239 -7 1 -17 2 -23 3 -6 0 -10 97 -10 266 l0 265 424 0 424 0 0 -42 c0
-24 0 -49 1 -55 1 -10 155 -13 736 -13 l735 0 0 -190 0 -190 -25 0 -25 0 -2
163 -3 162 -699 3 c-416 1 -703 -2 -710 -7 -8 -7 -11 -672 -10 -2448 l0 -2438
2472 -3 c1973 -2 2473 0 2477 10 2 7 6 843 9 1858 4 1015 7 1942 7 2060 1 118
1 385 0 593 l-1 377 -1342 -2 -1343 -3 -3 -178 c-2 -178 -3 -178 -25 -175 -22
3 -22 5 -25 205 l-2 203 1367 2 1368 3 3 48 3 47 425 0 424 0 0 -250 0 -250
-25 0 -25 0 -2 223 -3 222 -370 0 -370 0 0 -295 0 -295 370 0 370 0 3 23 c3
16 10 22 28 22 25 0 25 -1 22 -77 -3 -69 -5 -76 -25 -79 -17 -3 -22 2 -25 24
l-3 27 -370 0 -370 0 0 -290 0 -290 368 -3 367 -2 1 102 c1 116 5 294 8 321 0
11 9 17 26 17 l25 0 -5 -117 c-2 -65 -4 -277 -4 -470 l-1 -353 -25 0 -25 0 0
225 0 225 -367 -2 -368 -3 -3 -292 -2 -293 369 0 370 0 3 22 c2 13 12 22 26
24 21 4 22 1 22 -76 0 -79 0 -80 -25 -80 -21 0 -25 5 -25 30 l0 30 -370 0
-370 0 -1 -187 c0 -104 -2 -235 -2 -293 l-2 -105 373 -3 372 -2 0 215 0 215
25 0 25 0 1 -345 c2 -617 5 -555 -24 -555 -23 0 -23 1 -24 138 -1 75 -1 170
-2 210 l-1 72 -369 0 c-327 0 -370 -2 -375 -16 -3 -9 -6 -139 -6 -290 l0 -274
378 2 377 3 -1 28 c-1 22 3 27 22 27 24 0 26 -5 26 -60 0 -71 -2 -77 -24 -76
-16 1 -24 8 -26 24 -3 21 -32 32 -32 12 0 -6 -127 -10 -360 -10 l-360 0 0
-290 0 -290 375 0 c293 0 375 3 376 13 1 6 2 109 3 227 l1 215 28 3 28 3 -5
-453 c-2 -249 -5 -461 -5 -470 -1 -12 -9 -18 -26 -18 l-26 0 2 198 c1 108 1
205 0 215 -1 16 -26 17 -376 17 l-375 0 0 -290 0 -290 373 2 372 3 3 28 c3 21
9 27 28 27 24 0 24 -1 24 -89 0 -88 0 -88 -25 -88 -22 0 -25 4 -25 33 l0 34
-375 0 -375 0 0 -300 0 -300 375 0 375 0 0 220 0 220 25 0 25 0 0 -245 0 -244
-137 -3 -138 -3 -5 -100 c-5 -107 -2 -101 -56 -96 -7 1 -11 34 -10 98 l1 98
-252 3 -253 2 0 31 0 30 -2464 -2 c-1356 -1 -2470 -5 -2476 -9 -6 -4 -13 -16
-14 -26 -3 -18 -18 -19 -427 -19 l-424 0 0 255 0 255 26 3 25 3 0 -222 c-1
-146 3 -226 10 -233 7 -8 128 -11 374 -10 l364 0 1 295 c0 162 -2 302 -4 312
-3 16 -27 17 -375 15 l-371 -3 1 -27 c1 -24 -3 -28 -26 -28 -27 0 -27 0 -26
75 0 70 2 75 22 75 12 0 26 -10 32 -22 10 -23 11 -23 11 5 1 25 -2 27 -39 27
l-40 0 0 -60 c0 -33 -4 -60 -9 -60 -5 0 -10 -40 -10 -90 0 -49 5 -90 10 -90 5
0 10 -105 11 -242 l3 -243 435 0 435 0 3 22 3 23 762 2 c419 2 1528 4 2465 6
l1702 2 0 -30 0 -30 250 0 250 0 0 -75 c0 -41 -4 -75 -10 -75 -5 0 -9 -39 -8
-92 1 -51 4 -74 6 -50 3 38 5 42 19 31 12 -11 17 -10 27 3 7 9 28 18 47 21 21
2 10 4 -28 5 l-63 2 1 38 c1 32 2 33 8 12 6 -21 14 -26 49 -28 39 -3 42 -1 42
22 0 14 6 26 13 26 9 0 9 2 -1 9 -9 5 -12 28 -10 77 l3 69 137 3 137 3 3 227
c4 293 5 282 -38 282 l-34 0 0 -220 0 -220 -365 0 -365 0 0 290 0 290 368 0
c240 0 362 -4 352 -10 -10 -6 -11 -10 -2 -10 6 0 12 -11 12 -25 0 -22 4 -25
35 -25 30 0 35 3 35 24 0 13 6 27 13 29 10 4 10 6 0 6 -17 1 -17 78 0 84 9 4
9 6 0 6 -7 1 -13 12 -13 26 0 22 -4 25 -35 25 -30 0 -35 -3 -35 -24 0 -16 -7
-26 -22 -30 -13 -3 -177 -6 -365 -6 l-343 0 0 280 0 280 365 0 365 0 0 -184
c0 -138 -3 -186 -12 -189 -10 -4 -10 -6 0 -6 6 -1 12 -12 12 -26 0 -22 4 -25
34 -25 31 0 34 3 40 38 3 20 6 236 6 480 l0 442 -40 0 -40 0 0 -230 0 -230
-365 0 -365 0 0 280 0 280 355 0 355 0 1 -32 c0 -18 1 -51 1 -73 l1 -40 4 38
c4 33 6 37 19 26 12 -10 17 -9 27 1 10 10 8 12 -6 7 -11 -4 -16 -3 -12 3 3 6
24 10 46 10 l39 0 0 45 c0 25 -4 45 -10 45 -5 0 -10 11 -10 25 0 14 4 25 10
25 5 0 9 39 8 93 -1 50 -4 73 -6 49 -3 -37 -5 -42 -18 -31 -11 9 -18 8 -33 -5
-10 -9 -22 -16 -27 -15 -28 5 -34 -4 -34 -45 0 -26 5 -46 13 -49 6 -3 -153 -6
-355 -6 l-368 -1 0 168 c0 92 3 218 7 280 l6 112 359 0 358 0 0 -210 0 -210
34 0 c30 0 34 4 40 31 8 41 8 817 0 858 -6 27 -10 31 -40 31 l-34 0 0 -215 0
-215 -360 0 -360 0 0 285 0 285 363 0 c237 0 357 -4 347 -10 -9 -6 -10 -10 -3
-10 6 0 13 -10 15 -22 2 -15 11 -24 26 -26 32 -5 27 -22 -7 -22 -20 0 -31 6
-34 18 -4 13 -5 11 -6 -5 0 -13 2 -23 7 -24 46 -6 89 -4 100 4 14 11 16 87 2
87 -5 0 -10 16 -10 35 0 19 4 35 10 35 5 0 9 39 8 93 -1 50 -4 73 -6 49 -3
-36 -6 -41 -17 -32 -15 12 -39 4 -30 -10 3 -4 -6 -7 -19 -6 -14 2 -30 -1 -38
-5 -8 -5 10 -9 45 -9 l57 0 0 -35 c0 -19 -4 -35 -10 -35 -5 0 -10 12 -10 26 0
23 -3 25 -32 22 -25 -2 -34 -8 -36 -25 l-3 -22 -360 -1 -359 0 0 238 c0 132 3
260 6 286 l7 46 353 0 354 0 0 -225 0 -225 35 0 c19 0 35 1 36 3 1 1 3 217 5
480 l3 478 -37 -3 -37 -3 -3 -217 -2 -218 -355 0 -355 0 0 285 0 285 345 0
345 0 1 -47 c0 -27 1 -66 1 -88 l1 -40 4 38 c3 32 7 36 18 27 15 -13 39 -4 30
11 -4 5 10 9 29 9 36 0 36 0 36 45 0 25 -4 45 -10 45 -15 0 -12 67 2 73 10 4
10 6 1 6 -7 1 -13 10 -13 21 0 16 -7 20 -35 20 -28 0 -35 -4 -35 -20 0 -11 -4
-20 -10 -20 -5 0 -10 16 -10 36 l0 36 54 -4 c46 -2 54 0 53 14 -1 12 -5 14
-13 7 -8 -7 -15 -6 -20 2 -5 8 -3 9 6 4 9 -6 11 -4 6 4 -6 9 -12 8 -26 -4 -10
-9 -24 -14 -30 -10 -20 12 -40 -16 -40 -56 l0 -39 -345 0 -345 0 0 290 0 290
355 0 355 0 0 -194 c0 -106 3 -208 6 -225 6 -27 10 -31 40 -31 l34 0 0 260 0
260 -435 0 -435 0 0 -45 0 -45 -602 -1 c-332 -1 -686 -3 -788 -5 -102 -2 -447
-4 -767 -4 l-583 0 0 -216 0 -215 38 3 37 3 3 178 2 177 1330 0 1330 0 -6
-2432 c-4 -1338 -9 -2435 -11 -2438 -3 -3 -1111 -6 -2464 -8 l-2459 -2 0 2435
0 2435 700 0 700 0 0 -160 0 -160 35 0 35 0 0 200 0 200 -735 0 -735 0 0 55 0
55 -435 0 -435 0 0 -250z m38 -308 c29 -3 32 0 32 22 0 14 5 26 10 26 17 0 12
-67 -6 -74 -8 -3 -13 -2 -10 3 4 5 -12 7 -34 4 l-40 -6 1 39 c1 33 2 35 8 14
5 -19 14 -26 39 -28z m6572 -208 c0 -22 3 -25 32 -22 25 2 34 9 39 28 6 21 7
20 8 -12 l1 -38 -50 0 -50 0 0 35 c0 19 5 35 10 35 6 0 10 -12 10 -26z m80
-1298 c0 -20 -6 -36 -14 -39 -9 -4 -13 0 -11 11 2 9 4 27 4 40 1 36 21 25 21
-12z m0 -1091 c0 -19 -4 -35 -10 -35 -5 0 -10 9 -10 20 0 16 -7 20 -34 20 -28
0 -35 -4 -39 -22 -3 -14 -5 -9 -6 15 l-1 37 50 0 50 0 0 -35z m-50 -150 c31 0
35 3 32 23 -2 12 2 22 7 22 6 0 11 -16 11 -35 l0 -35 -50 0 -50 0 1 38 c1 32
2 33 8 12 6 -21 13 -25 41 -25z m-5850 -1505 l0 -300 -360 0 -360 0 0 205 c0
121 4 205 9 205 14 0 12 173 -2 182 -7 4 151 8 351 8 l362 0 0 -300z m-760
240 c32 0 39 4 43 23 3 13 5 8 6 -15 l1 -38 -50 0 -50 0 1 38 c1 23 3 28 6 15
4 -19 11 -23 43 -23z m-13 -62 c3 6 18 12 34 12 27 0 29 -2 28 -37 -1 -24 -3
-29 -6 -15 -4 18 -11 22 -43 22 -32 0 -39 -4 -43 -22 -3 -14 -5 -7 -6 16 -1
35 1 37 16 25 13 -11 17 -11 20 -1z"/>
<path d="M11668 9083 c12 -2 32 -2 45 0 12 2 2 4 -23 4 -25 0 -35 -2 -22 -4z"/>
<path d="M9953 8590 c0 -25 2 -35 4 -22 2 12 2 32 0 45 -2 12 -4 2 -4 -23z"/>
<path d="M10062 8600 c0 -19 2 -27 5 -17 2 9 2 25 0 35 -3 9 -5 1 -5 -18z"/>
<path d="M3353 8470 c0 -25 2 -35 4 -22 2 12 2 32 0 45 -2 12 -4 2 -4 -23z"/>
<path d="M3370 8435 c0 -25 -4 -45 -10 -45 -5 0 -9 -39 -8 -92 1 -66 3 -80 7
-49 4 32 11 45 24 47 9 1 15 -2 11 -7 -3 -5 -10 -6 -16 -3 -7 5 -8 2 -4 -5 6
-9 12 -9 25 3 10 9 30 16 44 16 25 0 27 3 27 40 l0 40 345 0 345 0 0 -285 0
-285 -355 0 -355 0 0 194 c0 106 -3 208 -6 225 -6 27 -10 31 -40 31 l-34 0 0
-450 c0 -279 -4 -450 -10 -450 -5 0 -9 -41 -9 -95 0 -54 4 -95 9 -95 6 0 10
-9 10 -20 0 -11 -6 -20 -12 -20 -9 0 -10 -2 -2 -8 7 -4 13 -16 15 -27 3 -14
13 -21 37 -23 27 -3 32 0 32 18 0 19 -2 20 -15 6 -30 -29 -45 -9 -45 60 0 61
1 64 24 64 19 0 25 -6 28 -27 l3 -28 366 -3 c343 -2 367 -1 370 15 4 15 3 478
0 551 l-1 22 -367 -2 -368 -3 -3 -217 -2 -218 -25 0 -25 0 0 470 0 470 25 0
25 0 2 -222 3 -223 366 -3 c343 -2 367 -1 370 15 4 15 3 478 0 551 l-1 22
-370 0 -370 0 0 -25 c0 -20 -4 -24 -22 -21 -21 3 -23 9 -26 64 -3 60 -2 62 21
62 18 0 27 -7 31 -26 9 -34 16 -27 9 9 -5 23 -10 27 -39 27 -34 0 -34 -1 -34
-45z m38 -103 c29 -3 32 0 32 22 0 14 5 26 10 26 6 0 10 -16 10 -35 l0 -35
-50 0 -50 0 1 38 c1 32 2 33 8 12 5 -19 14 -26 39 -28z m752 -877 l0 -285
-344 0 c-189 0 -351 3 -360 6 -9 3 -16 17 -16 30 0 21 -5 24 -34 24 -30 0 -35
-4 -39 -27 -3 -24 -4 -23 -6 7 l-1 36 49 2 50 2 4 -38 4 -37 1 43 2 44 -45 -3
c-24 -2 -48 1 -52 5 -4 4 -3 7 2 6 6 -1 29 -2 53 -1 l42 1 0 45 c0 25 -4 45
-10 45 -6 0 -10 70 -10 190 l0 190 355 0 355 0 0 -285z m-754 -155 c30 0 34 3
34 25 0 14 5 25 10 25 6 0 10 -16 10 -35 l0 -35 -50 0 -50 0 1 38 c2 30 3 32
6 10 4 -24 9 -28 39 -28z"/>
<path d="M3463 8250 c0 -25 2 -35 4 -22 2 12 2 32 0 45 -2 12 -4 2 -4 -23z"/>
<path d="M10063 8240 c0 -25 2 -35 4 -22 2 12 2 32 0 45 -2 12 -4 2 -4 -23z"/>
<path d="M10593 8170 c0 -25 2 -35 4 -22 2 12 2 32 0 45 -2 12 -4 2 -4 -23z"/>
<path d="M10720 8170 c0 -37 -2 -40 -19 -31 -14 8 -22 7 -32 -5 -7 -8 -22 -14
-33 -13 -43 3 -46 0 -46 -46 0 -25 5 -45 10 -45 6 0 10 -7 10 -15 0 -12 -15
-15 -79 -15 -69 0 -79 -2 -84 -19 -3 -11 -4 -246 -3 -523 l1 -503 83 -3 82 -3
0 -29 c0 -15 -6 -31 -12 -33 -10 -4 -10 -6 0 -6 6 -1 12 -12 12 -26 0 -23 4
-25 45 -25 42 0 45 2 45 26 0 14 4 23 10 19 6 -3 10 -1 10 4 0 6 -4 11 -10 11
-6 0 -10 32 -10 75 l0 75 -80 0 -80 0 0 435 0 435 80 0 80 0 0 59 c0 41 4 60
14 64 11 4 14 27 14 91 1 47 -1 86 -4 86 -2 0 -4 -18 -4 -40z m-26 -38 c3 -5
-1 -9 -9 -9 -8 0 -12 4 -9 9 3 4 7 8 9 8 2 0 6 -4 9 -8z m26 -57 c0 -19 -4
-35 -10 -35 -5 0 -10 12 -10 26 0 23 -3 25 -42 22 -35 -2 -43 -7 -49 -28 -6
-21 -7 -20 -8 13 l-1 37 60 0 60 0 0 -35z m-37 -4 c4 0 7 -35 7 -76 l0 -74
-82 -3 -83 -3 0 -440 0 -440 83 -3 82 -3 0 -94 0 -95 -35 0 -35 0 0 60 c0 41
-4 60 -12 61 -7 1 -42 2 -78 3 l-65 1 -3 513 -2 512 80 0 c44 0 80 3 81 8 1 4
2 23 4 42 2 19 3 36 4 36 1 1 38 -2 54 -5z"/>
<path d="M2713 8030 c0 -25 2 -35 4 -22 2 12 2 32 0 45 -2 12 -4 2 -4 -23z"/>
<path d="M2842 8032 c-2 -42 -22 -52 -22 -11 0 16 -7 19 -39 19 -39 0 -40 -1
-46 -44 -12 -79 -10 -81 83 -84 l82 -3 0 -424 0 -425 -80 0 -80 0 0 -29 c0
-16 -6 -31 -15 -35 -19 -7 -21 -82 -2 -89 10 -4 10 -6 0 -6 -19 -1 -17 -78 2
-89 13 -7 15 -29 13 -128 l-3 -119 -409 -3 c-321 -2 -411 0 -418 10 -6 10 -8
10 -8 1 0 -7 -9 -13 -20 -13 -16 0 -20 -7 -20 -35 0 -28 4 -35 20 -35 11 0 20
-6 20 -12 0 -10 2 -10 8 0 7 9 65 12 258 10 l249 -3 3 -94 c2 -69 -1 -97 -10
-103 -10 -6 -10 -8 0 -8 6 0 12 -11 12 -25 0 -22 4 -25 35 -25 30 0 35 3 35
24 0 13 6 27 13 29 10 4 10 6 0 6 -10 1 -13 28 -13 101 l0 100 205 0 205 0 0
-295 0 -295 -205 0 -205 0 0 99 c0 70 4 101 13 104 10 4 10 6 0 6 -7 1 -13 12
-13 26 0 22 -4 25 -35 25 -30 0 -35 -3 -35 -24 0 -13 -6 -27 -12 -29 -10 -4
-10 -6 0 -6 9 -1 12 -28 12 -101 l0 -100 -249 0 c-190 0 -251 3 -254 13 -4 10
-6 10 -6 0 -1 -7 -12 -13 -26 -13 -22 0 -25 -4 -25 -35 0 -31 3 -35 25 -35 14
0 25 -4 25 -10 0 -5 -16 -10 -35 -10 -23 0 -35 5 -34 13 3 26 -4 101 -8 82 -2
-11 -9 -30 -15 -42 -9 -19 -8 -27 7 -43 22 -24 83 -28 91 -5 4 8 15 15 25 15
18 0 19 -14 21 -287 l3 -288 468 -3 467 -2 0 -243 c0 -134 -3 -379 -7 -545
l-6 -302 -109 0 c-80 0 -108 3 -108 13 0 8 -2 9 -8 1 -4 -7 -16 -13 -26 -15
-19 -4 -40 -52 -28 -63 3 -3 15 -6 28 -6 12 0 25 -6 27 -12 4 -10 6 -10 6 0 1
9 37 12 146 12 142 0 145 0 149 23 8 36 14 1226 7 1302 l-6 70 -83 0 c-78 0
-82 1 -82 23 0 18 -5 22 -34 22 -30 0 -35 -3 -38 -27 -2 -16 -1 -43 1 -60 l3
-33 84 0 84 0 0 -40 0 -40 -430 0 -430 0 0 250 0 250 323 0 c177 0 332 -3 345
-6 20 -6 22 -12 22 -84 0 -60 -3 -79 -15 -84 -21 -8 -19 -66 4 -95 17 -23 49
-22 35 1 -5 7 2 9 19 6 14 -3 32 -1 39 3 8 5 -10 9 -44 9 l-58 0 0 35 c0 19 5
35 10 35 6 0 10 -11 10 -25 0 -22 4 -25 35 -25 30 0 35 3 35 24 0 13 6 27 13
29 10 4 10 6 0 6 -9 1 -13 24 -13 81 l0 79 88 3 87 3 3 368 2 367 -85 0 -85 0
0 125 c0 77 4 125 10 125 6 0 10 5 10 11 0 5 -4 7 -10 4 -6 -4 -10 5 -10 19 0
23 -4 26 -35 26 -31 0 -35 -3 -35 -25 0 -14 -4 -25 -10 -25 -5 0 -10 16 -10
36 0 25 4 35 13 31 6 -2 32 -1 57 4 l45 8 -47 -2 c-56 -2 -50 10 7 16 32 3 29
4 -17 5 l-58 2 0 35 c0 19 5 35 10 35 6 0 10 -11 10 -25 0 -22 4 -25 35 -25
30 0 35 3 35 23 0 21 4 22 82 22 l83 0 0 500 0 500 -62 3 -62 3 -4 42 -4 42
-1 -43z m-30 -29 c3 -28 4 -28 79 -31 l76 -3 -1 -487 -1 -487 -82 2 c-82 2
-83 2 -83 -22 0 -20 -5 -25 -25 -25 -23 0 -25 3 -25 49 l0 49 82 -1 82 -1 1
425 c0 233 -1 430 -3 437 -3 8 -29 12 -83 12 l-79 0 0 55 c0 54 0 55 29 55 25
0 30 -4 33 -27z m-12 -1298 l0 -155 83 0 84 0 0 -355 0 -354 -86 -3 -86 -3 -5
-110 c-5 -102 -7 -110 -25 -110 -18 0 -20 8 -25 110 l-5 110 -354 0 -355 0 0
-248 c-1 -137 1 -253 4 -257 4 -7 744 -16 863 -11 14 1 17 10 17 51 l0 50 -85
0 -85 0 0 50 c0 47 2 50 25 50 20 0 25 -5 25 -25 0 -25 1 -25 85 -25 l85 0 2
-82 c2 -142 -5 -982 -11 -1225 l-1 -63 -164 0 c-163 0 -163 0 -162 23 1 22 4
22 139 25 l137 3 1 37 c10 382 13 1061 6 1069 -4 3 -213 7 -465 8 -251 1 -460
3 -463 4 -3 0 -5 128 -5 284 l1 282 -52 3 c-49 3 -53 5 -53 28 l0 24 280 0
280 0 0 130 0 130 25 0 25 0 0 -130 0 -130 217 2 217 3 0 300 0 300 -214 0
-215 0 -3 -127 -3 -128 -24 0 -24 0 -3 128 -3 127 -277 3 -278 2 0 25 0 25
438 2 437 3 3 153 3 152 24 0 25 0 0 -155z m-966 -861 c3 -8 2 -12 -4 -9 -6 3
-10 10 -10 16 0 14 7 11 14 -7z m911 -284 c3 -5 1 -10 -4 -10 -6 0 -11 5 -11
10 0 6 2 10 4 10 3 0 8 -4 11 -10z"/>
<path d="M3448 7123 c6 -2 12 -20 12 -39 l0 -34 -53 0 c-40 0 -54 -4 -54 -15
0 -8 5 -11 11 -7 17 10 37 11 30 1 -3 -5 -10 -6 -16 -3 -7 5 -8 2 -4 -5 6 -9
12 -9 24 2 10 9 28 17 42 19 19 2 26 10 28 31 l3 27 345 0 344 0 0 -285 0
-285 -360 0 -361 0 1 208 c0 114 1 219 0 235 0 24 -4 27 -33 27 l-34 0 -6
-212 c-4 -116 -7 -318 -7 -449 0 -148 -4 -240 -10 -244 -5 -3 -10 -24 -10 -46
l0 -41 45 3 c24 2 48 -1 52 -5 4 -4 4 -7 -2 -6 -5 1 -29 2 -52 1 l-43 -1 0
-45 c0 -25 5 -45 10 -45 6 0 10 -11 10 -24 0 -14 -4 -28 -10 -31 -14 -9 -12
-82 3 -88 10 -4 10 -6 0 -6 -16 -1 -18 -91 -3 -91 7 0 10 -145 10 -415 0 -270
-3 -415 -10 -415 -5 0 -10 -20 -10 -45 0 -44 1 -45 33 -45 64 0 77 -9 77 -51
l0 -39 359 0 359 0 3 23 c2 12 4 139 3 282 l0 260 -372 3 c-205 1 -372 -1
-373 -5 0 -5 -2 -102 -2 -218 l-2 -210 -25 0 -25 0 0 460 0 460 25 0 25 0 1
-215 0 -215 369 -3 c216 -1 371 2 374 7 3 5 6 130 5 278 l0 268 -354 3 c-216
1 -358 6 -364 12 -16 16 -24 12 -28 -12 -2 -16 -11 -24 -29 -26 -25 -3 -25 -2
-24 65 3 88 1 85 28 81 17 -2 22 -10 22 -33 l1 -30 369 -3 c216 -1 371 2 374
7 5 7 6 477 2 554 -1 16 -24 17 -373 15 l-372 -3 0 -207 0 -208 -26 0 -27 0 2
288 c1 158 3 369 4 470 l1 182 26 0 25 0 -1 -222 c-1 -123 -1 -229 -1 -235 1
-10 82 -13 370 -13 343 0 369 1 372 18 4 14 3 478 0 550 l-1 22 -350 0 c-227
0 -350 4 -350 10 0 6 -8 10 -17 9 -11 0 -13 -3 -5 -6z m712 -943 l0 -280 -362
0 c-200 0 -358 4 -351 8 15 9 17 178 3 187 -6 4 -10 83 -10 186 l0 179 360 0
360 0 0 -280z m-758 -138 c33 -3 37 -1 41 25 3 25 4 24 6 -7 l1 -36 -50 -2
-50 -2 1 37 c1 33 2 34 8 13 5 -20 14 -26 43 -28z m47 -89 c-1 -33 -2 -34 -8
-13 -6 20 -13 25 -41 25 -28 0 -35 -5 -41 -25 -6 -21 -7 -20 -8 13 l-1 37 50
0 50 0 -1 -37z m-47 -151 c33 -3 37 -1 41 25 3 23 4 22 6 -9 l1 -38 -50 0 -50
0 1 38 c1 32 2 33 8 12 5 -20 14 -26 43 -28z m758 -242 l0 -270 -360 0 -360 0
0 190 c0 120 4 190 10 190 6 0 10 20 10 45 l0 45 -39 0 c-22 0 -42 -4 -45 -9
-4 -5 11 -7 34 -4 l40 6 -1 -39 c-1 -33 -2 -35 -8 -14 -6 20 -13 25 -41 25
-28 0 -35 -5 -41 -25 -6 -23 -7 -22 -8 9 -1 42 21 60 72 61 34 0 37 2 37 30
l0 30 350 0 350 0 0 -270z m0 -615 l0 -275 -350 0 -350 0 -1 38 c0 20 0 58 1
85 1 28 -3 47 -9 47 -8 0 -11 61 -11 190 l0 190 360 0 360 0 0 -275z m-760
-160 c28 0 35 5 41 25 6 22 7 20 8 -11 1 -24 -4 -39 -14 -43 -8 -3 -15 -2 -15
2 0 5 -16 6 -35 4 -35 -4 -35 -4 -34 34 1 33 2 35 8 14 6 -20 13 -25 41 -25z"/>
<path d="M3462 7000 c0 -19 2 -27 5 -17 2 9 2 25 0 35 -3 9 -5 1 -5 -18z"/>
<path d="M9953 6950 c0 -25 2 -35 4 -22 2 12 2 32 0 45 -2 12 -4 2 -4 -23z"/>
<path d="M10063 6950 c0 -25 2 -35 4 -22 2 12 2 32 0 45 -2 12 -4 2 -4 -23z"/>
<path d="M1814 6555 c3 -15 1 -23 -5 -20 -5 4 -6 11 -3 17 5 7 2 8 -5 4 -9 -6
-8 -12 4 -26 9 -10 15 -23 12 -27 -3 -5 -2 -15 4 -23 6 -10 9 4 9 43 0 32 -4
57 -10 57 -6 0 -8 -11 -6 -25z"/>
<path d="M469 6483 c-3 -59 -4 -570 -1 -580 3 -10 134 -13 608 -13 568 0 604
1 605 18 0 9 1 65 1 125 0 106 0 107 24 107 27 0 27 2 28 -150 1 -91 2 -95 24
-98 16 -3 22 -10 22 -28 l0 -24 -657 -2 -657 -3 0 -923 c-1 -508 1 -927 4
-930 3 -4 25 -7 50 -7 41 -1 45 -3 48 -27 3 -26 2 -26 -43 -24 -25 1 -49 -2
-53 -8 -4 -6 -7 -126 -7 -266 l0 -255 368 -3 367 -2 0 25 c0 20 5 25 25 25 25
0 25 -1 25 -88 l0 -88 -27 2 c-16 1 -31 2 -35 3 -5 0 -8 17 -8 36 l0 35 -353
0 c-195 0 -357 -3 -360 -7 -4 -3 -2 -11 3 -18 6 -7 11 -128 12 -291 l3 -279
345 0 345 0 3 213 2 212 35 0 35 0 0 -315 0 -315 -32 3 c-33 2 -33 2 -38 67
l-5 65 -345 0 -345 0 0 -285 0 -285 348 -3 347 -2 0 25 c0 22 4 25 35 25 l35
0 0 -95 0 -95 -34 0 c-33 0 -35 2 -38 38 l-3 37 -345 0 -345 0 -3 -312 -2
-313 350 0 350 0 0 230 0 230 35 0 35 0 0 -230 0 -230 150 0 150 0 0 163 0
164 373 -1 372 -1 3 -32 3 -33 -340 0 -341 0 0 -130 0 -130 394 0 c306 0 395
3 398 13 2 6 3 54 3 105 -2 67 2 95 12 103 20 17 16 39 -7 39 -16 0 -20 7 -20
33 0 33 1 34 40 34 l40 0 0 -224 0 -223 -29 0 c-23 0 -30 5 -33 22 l-3 23
-397 3 -398 2 -1 -282 c0 -156 -2 -401 -2 -546 -1 -144 0 -262 3 -263 3 0 557
-2 1232 -4 1157 -4 1228 -4 1236 13 6 13 9 832 3 935 -1 16 -32 17 -501 17
l-500 0 0 -40 c0 -39 -1 -40 -35 -40 -34 0 -35 1 -35 40 l0 40 -43 0 -43 0 0
270 0 270 52 0 51 0 -1 -33 c-1 -24 -6 -33 -21 -35 -19 -3 -20 -10 -17 -200 2
-108 6 -199 8 -201 10 -10 1076 -6 1083 4 5 8 7 321 2 383 -1 9 -104 12 -481
12 l-480 0 0 35 0 35 480 0 c264 0 480 3 481 8 0 4 2 268 3 587 2 319 4 583 4
586 1 3 15 6 32 6 l30 0 2 -731 3 -731 90 -3 90 -3 75 101 c94 126 145 195
251 340 46 63 107 145 134 182 118 160 223 304 270 367 28 37 84 114 125 170
41 56 98 132 125 169 93 124 86 94 83 349 l-3 228 -620 0 -620 0 -3 -172 -2
-173 -33 0 -33 0 0 205 0 205 2598 0 2598 0 0 -255 c0 -140 -3 -256 -7 -256
-5 -1 -20 -2 -36 -3 l-27 -2 1 216 c1 118 1 221 0 228 -1 9 -130 12 -611 12
l-610 0 0 -190 0 -190 43 -59 c23 -33 49 -69 57 -81 31 -45 160 -225 168 -235
4 -5 32 -46 62 -90 30 -44 60 -85 65 -92 6 -6 37 -50 70 -97 33 -48 88 -126
122 -174 34 -48 71 -100 83 -117 11 -16 38 -55 60 -85 22 -30 49 -68 60 -85
12 -16 49 -69 83 -117 34 -48 91 -128 127 -179 36 -51 71 -98 78 -105 16 -16
108 -19 117 -4 4 6 8 164 11 353 3 188 7 437 9 552 2 116 4 263 4 328 l1 117
34 0 35 0 -4 -132 c-2 -73 -5 -378 -7 -678 l-3 -545 133 -3 132 -3 0 -33 0
-34 -132 2 -133 1 1 -190 c1 -284 15 -918 20 -936 4 -14 45 -16 342 -18 185
-1 400 -4 477 -6 77 -2 428 -6 780 -10 352 -5 685 -9 740 -9 55 -1 105 2 112
7 8 6 12 93 13 310 1 166 3 419 4 562 l1 259 -30 2 c-16 1 -63 2 -102 3 l-73
1 0 30 0 30 139 0 140 0 -5 -312 c-2 -172 -6 -436 -8 -586 -3 -203 -1 -274 7
-278 28 -10 289 -10 293 0 2 6 5 94 6 196 l3 185 33 3 32 3 0 -200 0 -201 263
-1 c144 0 320 -2 390 -3 107 -1 130 1 136 14 11 24 6 509 -5 520 -7 7 -148 9
-394 8 -375 -3 -384 -3 -390 -23 -3 -13 -14 -20 -32 -21 l-28 -1 0 88 0 89 34
0 c30 0 33 -2 28 -26 -3 -16 1 -30 9 -35 8 -5 184 -9 391 -9 350 0 378 1 385
17 7 14 10 469 4 541 -1 9 -86 12 -391 12 l-390 0 -1 -182 c-1 -101 -1 -193
-2 -206 0 -18 -5 -22 -34 -22 l-35 0 5 308 c4 169 6 373 6 455 l1 147 35 0 36
0 -6 -215 -6 -215 393 0 393 0 -2 277 c0 153 -2 280 -2 283 -1 3 -174 5 -386
5 l-385 0 0 -22 c0 -20 -5 -23 -36 -23 l-35 0 2 80 2 80 33 0 c30 0 34 -3 34
-25 l0 -25 387 2 387 3 0 264 c1 162 -3 269 -9 277 -8 10 -93 14 -383 16 -325
3 -372 1 -373 -12 -1 -23 -7 -246 -8 -331 l-1 -75 -30 0 c-27 0 -30 3 -30 30
-1 17 0 111 0 208 1 119 -3 179 -10 183 -6 4 -14 4 -18 0 -3 -3 0 -10 7 -15
12 -7 13 -39 7 -182 -3 -98 -11 -174 -16 -176 -6 -2 -10 -24 -10 -48 0 -44 0
-44 38 -45 20 -1 43 -1 50 0 6 1 12 -2 12 -6 0 -5 10 -10 22 -10 16 -2 19 0 9
6 -9 6 -10 11 -2 15 6 4 11 25 11 47 0 29 -4 39 -16 39 -11 0 -14 5 -10 16 3
9 6 90 6 180 l0 164 324 0 c178 0 344 -3 370 -6 l46 -7 0 -264 0 -263 -375 0
-375 1 0 24 c0 23 -4 25 -45 25 l-45 0 0 -60 c0 -33 -4 -60 -10 -60 -5 0 -10
-8 -10 -17 0 -15 2 -16 10 -3 8 12 10 9 10 -12 0 -26 3 -28 45 -28 42 0 45 2
45 26 0 20 4 25 16 20 9 -3 177 -6 375 -6 l359 0 0 -270 0 -270 -377 0 -378 0
3 182 c2 101 8 185 13 186 5 2 9 13 8 25 0 21 -1 21 -9 2 -8 -18 -9 -17 -9 8
-1 25 -4 27 -46 27 -41 0 -45 -2 -45 -24 0 -13 -6 -27 -12 -29 -9 -4 -10 -6
-1 -6 16 -1 5 -802 -11 -813 -8 -5 -7 -8 2 -8 6 0 12 -11 12 -25 0 -23 4 -25
44 -25 41 0 45 2 49 27 3 24 4 22 6 -8 1 -37 -14 -51 -64 -62 -11 -3 -1 -5 23
-6 42 -1 42 -1 41 -38 -1 -33 -2 -34 -8 -13 -6 21 -14 26 -49 28 -38 3 -42 1
-43 -20 -2 -58 -11 -113 -20 -116 -5 -2 -9 -24 -9 -48 0 -44 0 -44 38 -45 20
-1 43 -1 50 0 6 1 12 -3 12 -9 0 -6 7 -6 20 2 13 9 20 24 20 45 l0 33 370 0
370 0 0 -255 0 -255 -347 0 c-192 0 -365 3 -386 6 l-38 7 1 166 c0 91 1 178 0
194 0 25 -3 27 -45 27 l-45 0 0 -195 0 -195 -142 0 -141 0 6 590 7 590 -73 2
c-39 2 -107 3 -149 3 l-78 1 0 -43 c0 -36 3 -43 20 -43 11 0 20 -4 20 -10 0
-5 -16 -10 -35 -10 -36 0 -43 8 -24 27 8 8 8 13 0 17 -6 4 -11 18 -11 31 0 45
-10 55 -55 55 -24 0 -45 -5 -47 -11 -3 -8 -217 -8 -808 0 -443 6 -844 11 -892
11 l-88 0 0 -45 c0 -38 3 -45 20 -45 11 0 20 -6 20 -12 0 -10 2 -10 8 0 7 10
143 11 708 2 384 -5 786 -10 892 -10 l192 0 0 44 c0 38 -3 45 -22 49 -14 3 -9
5 15 6 39 1 42 -4 39 -78 -1 -14 3 -31 10 -38 12 -15 88 -18 88 -3 0 6 33 10
79 10 l79 0 -4 -422 c-3 -233 -7 -483 -10 -555 l-6 -133 -217 0 c-436 1 -2203
28 -2209 34 -5 5 -27 756 -31 1064 l-1 42 135 0 135 0 0 45 c0 38 -3 45 -19
45 -11 0 -22 6 -24 13 -4 9 -6 9 -6 0 -1 -14 -94 -18 -175 -7 l-47 7 5 321 c3
177 8 480 12 673 l5 353 -45 0 c-42 0 -46 -2 -46 -25 0 -19 -4 -23 -17 -18
-16 5 -17 4 -2 -8 15 -13 16 -62 8 -544 -4 -291 -8 -581 -8 -643 l-1 -113 -54
3 -55 3 -535 757 -536 757 0 176 0 175 600 0 600 0 0 -195 c0 -149 -3 -195
-12 -195 -9 0 -10 -2 -2 -8 7 -4 13 -16 15 -27 4 -16 12 -20 44 -20 32 0 40 4
44 20 2 11 8 23 15 27 7 5 7 8 -3 8 -11 0 -13 41 -10 243 l4 242 -2610 0
-2610 0 -3 -217 -2 -218 45 0 c42 0 45 2 45 28 1 15 1 91 0 170 l-1 142 616 0
615 0 0 -220 0 -219 -527 -716 -526 -715 -89 0 -88 0 0 699 c0 593 2 700 14
704 11 4 14 26 13 94 -1 48 -3 69 -5 45 -3 -37 -5 -41 -22 -32 -13 7 -21 6
-31 -6 -7 -8 -22 -14 -33 -13 -43 3 -46 0 -46 -46 0 -25 5 -45 10 -45 7 0 10
-195 10 -565 l0 -565 -480 0 -480 0 0 -45 0 -45 480 0 480 0 0 -190 0 -190
-535 0 -535 0 0 180 0 180 38 1 c20 0 57 1 82 1 l45 0 -44 7 c-31 4 -45 11
-47 24 -1 9 2 15 7 11 5 -3 6 -11 3 -17 -4 -7 -1 -7 7 1 12 11 11 15 -5 27
-11 9 -17 22 -14 33 3 11 2 26 -3 33 -5 9 -9 -10 -9 -48 l0 -63 -37 1 c-33 1
-34 2 -13 8 21 6 26 14 28 49 3 39 1 42 -22 42 -13 0 -27 6 -29 13 -4 9 -6 9
-6 0 -1 -8 -15 -13 -36 -13 l-35 0 0 -280 0 -280 45 0 c43 0 60 -12 33 -23
-10 -4 -10 -6 0 -6 6 -1 12 -12 12 -26 0 -23 4 -25 45 -25 41 0 45 2 45 24 0
13 6 27 12 29 10 4 10 6 1 6 -7 1 -13 6 -13 11 0 7 170 10 490 10 l490 0 0
-470 0 -470 -1225 0 -1225 0 0 535 0 535 375 0 375 0 1 -42 c0 -24 0 -62 -1
-84 -1 -23 3 -45 9 -49 7 -4 11 -50 11 -121 l0 -114 350 0 350 0 0 34 c0 19 6
37 13 39 10 4 10 6 0 6 -7 1 -13 12 -13 26 0 23 -4 25 -45 25 -40 0 -45 -2
-45 -22 l0 -23 -260 3 -260 3 0 68 c0 52 4 70 15 75 10 3 15 19 15 46 l0 40
-49 0 c-28 0 -52 -4 -55 -8 -3 -5 17 -7 44 -4 l50 5 0 -37 c0 -20 -4 -36 -10
-36 -5 0 -10 12 -10 26 0 23 -3 25 -42 22 -35 -2 -43 -7 -49 -28 -6 -23 -7
-22 -8 9 -1 44 21 60 82 61 l47 0 0 40 c0 27 -5 43 -15 46 -13 5 -15 38 -15
210 l0 204 -25 0 c-14 0 -25 4 -25 9 0 6 -40 10 -90 10 -51 0 -90 -4 -90 -9 0
-6 -137 -10 -360 -10 l-360 0 0 -165 0 -165 -140 0 -140 0 0 199 c0 150 3 201
13 204 10 4 10 6 0 6 -7 1 -13 12 -13 26 0 23 -4 25 -44 25 -41 0 -45 -2 -49
-27 -3 -24 -4 -22 -6 8 -1 41 19 56 84 62 28 3 21 4 -22 5 l-63 2 1 38 c2 30
3 32 6 10 4 -26 8 -28 49 -28 40 0 44 2 44 24 0 13 6 27 13 29 10 4 10 6 0 6
-17 1 -17 88 -1 94 10 4 10 6 1 6 -7 1 -13 12 -13 26 0 23 -4 25 -44 25 -41 0
-45 -2 -49 -27 -3 -24 -4 -22 -6 8 -1 41 19 56 84 62 28 3 21 4 -22 5 l-63 2
1 38 c2 30 3 32 6 10 4 -26 8 -28 49 -28 40 0 44 2 44 24 0 13 6 27 13 29 10
4 10 6 0 6 -9 1 -13 25 -13 86 l0 85 -45 0 -45 0 0 -85 c0 -54 -4 -85 -11 -85
-6 0 -10 -19 -9 -48 1 -26 1 -64 1 -84 l-1 -38 -330 0 -330 0 0 270 0 270 340
0 340 0 0 -35 c0 -19 -4 -35 -10 -35 -5 0 -9 -39 -8 -92 1 -66 3 -80 7 -49 4
32 11 45 24 47 9 1 15 -2 11 -7 -3 -5 -10 -6 -16 -3 -7 5 -8 2 -4 -5 6 -9 13
-8 27 5 10 9 27 14 38 11 10 -2 25 -1 32 4 9 5 -10 9 -48 9 l-63 0 1 38 c1 32
2 33 8 12 6 -21 14 -26 49 -28 39 -3 42 -1 42 22 0 13 6 27 13 29 10 4 10 6 0
6 -10 1 -13 67 -13 296 l0 295 -45 0 -45 0 0 -210 0 -210 -340 0 -339 0 -3
285 -3 285 343 0 c221 0 342 -4 342 -10 0 -5 -4 -10 -10 -10 -5 0 -9 -39 -8
-92 1 -67 3 -80 7 -48 l6 45 53 1 c75 2 78 14 4 14 l-62 0 1 38 c1 32 2 33 8
12 6 -21 14 -26 49 -28 39 -3 42 -1 42 22 0 13 6 27 13 29 10 4 10 6 0 6 -17
1 -17 78 -1 84 10 4 10 6 1 6 -7 1 -13 12 -13 26 0 22 -4 25 -35 25 -31 0 -35
-3 -35 -25 0 -14 -4 -25 -10 -25 -5 0 -10 16 -10 36 0 25 4 35 13 31 6 -2 32
-1 57 4 l45 8 -48 -3 c-26 -2 -47 0 -47 3 0 4 19 8 42 10 63 3 60 11 -5 11
l-57 0 0 35 c0 19 5 35 10 35 6 0 10 -11 10 -25 0 -22 4 -25 35 -25 30 0 35 3
35 24 0 13 6 27 13 29 10 4 10 6 0 6 -10 1 -13 41 -13 166 l0 165 608 2 607 3
5 85 c5 84 5 85 33 88 24 3 27 8 27 38 l0 34 -70 0 -70 0 0 -85 0 -85 -844 0
c-553 0 -847 3 -851 10 -3 6 -24 10 -46 10 l-41 0 3 -45 c2 -24 -1 -48 -5 -52
-4 -4 -7 -3 -6 2 1 6 2 29 1 53 l-1 42 -45 0 c-25 0 -45 -4 -45 -10 0 -5 -9
-10 -20 -10 -20 0 -20 7 -20 920 l0 920 628 0 c345 0 639 0 655 0 24 0 27 4
27 35 0 30 -3 35 -22 35 -23 0 -23 2 -20 100 2 55 7 100 12 100 5 0 8 42 8 93
-1 50 -4 73 -6 49 -3 -38 -5 -42 -19 -31 -13 11 -17 10 -28 -5 -7 -9 -19 -16
-27 -15 -33 4 -38 -2 -38 -46 0 -25 5 -45 10 -45 6 0 10 -40 10 -100 l0 -100
-595 0 -595 0 0 295 0 295 595 0 595 0 0 -130 0 -130 34 0 c30 0 34 4 40 31 9
47 7 207 -3 213 -5 3 -8 -31 -6 -77 1 -45 0 -99 -3 -120 -4 -32 -8 -38 -26
-35 -20 3 -21 9 -23 118 -1 63 -2 121 -2 128 -1 9 -129 12 -606 12 -569 0
-605 -1 -606 -17z m1291 -338 c0 -19 -5 -35 -11 -35 -5 0 -9 10 -7 23 3 19 -1
22 -32 22 -28 0 -35 -4 -41 -25 -6 -21 -7 -20 -8 13 l-1 37 50 0 50 0 0 -35z
m770 -2019 c0 -21 -6 -25 -32 -28 l-33 -3 -3 -88 -3 -88 -587 2 c-323 1 -595
1 -604 0 -17 -1 -18 -17 -18 -196 l0 -195 -25 0 -25 0 -2 197 -3 197 -267 0
-268 0 0 23 c0 17 6 23 23 25 12 1 405 2 872 2 l850 1 3 88 3 87 59 0 c57 0
60 -1 60 -24z m-1930 -176 l0 -50 -37 1 c-33 1 -34 2 -13 8 20 6 25 13 25 41
0 28 -5 35 -25 41 -21 6 -20 7 13 8 l37 1 0 -50z m80 41 c-20 -5 -26 -14 -28
-43 -3 -33 -1 -37 25 -41 25 -3 24 -4 -7 -6 l-36 -1 -2 50 -2 50 37 -1 c33 -1
34 -2 13 -8z m-160 -91 c0 -12 178 -12 185 1 4 5 106 9 246 9 l239 0 0 -164
c0 -136 -3 -165 -15 -170 -18 -7 -20 -67 -3 -84 9 -9 9 -12 0 -12 -7 0 -12
-16 -12 -40 l0 -40 -340 0 -340 0 0 255 c0 248 1 255 20 255 11 0 20 -4 20
-10z m3644 -908 c3 -5 -1 -9 -9 -9 -8 0 -12 4 -9 9 3 4 7 8 9 8 2 0 6 -4 9 -8z
m26 -57 c0 -19 -4 -35 -10 -35 -5 0 -10 12 -10 26 0 23 -3 25 -42 22 -35 -2
-43 -7 -49 -28 -6 -21 -7 -20 -8 13 l-1 37 60 0 60 0 0 -35z m-2940 -590 l0
-105 -35 0 -35 0 0 105 0 105 35 0 35 0 0 -105z m10898 -67 c-3 -20 2 -23 40
-26 39 -3 42 -1 42 22 0 14 5 26 10 26 16 0 12 -67 -4 -73 -8 -3 -17 -3 -20 1
-4 3 -25 5 -46 3 -40 -3 -40 -2 -40 33 0 20 5 36 11 36 5 0 9 -10 7 -22z
m-10985 -266 c-15 -9 -17 -192 -3 -192 6 0 10 -79 10 -200 l0 -200 -340 0
-340 0 0 300 0 300 343 0 c188 0 337 -4 330 -8z m1177 -312 c0 -37 4 -60 11
-60 6 0 9 7 6 15 -4 8 -1 17 5 21 7 5 8 2 3 -6 -6 -9 -4 -11 4 -5 9 5 10 10 2
18 -6 6 -11 26 -11 44 0 32 1 33 38 32 23 -1 28 -3 15 -6 -20 -4 -23 -11 -23
-49 0 -37 3 -44 20 -44 11 0 20 -4 20 -10 0 -5 -7 -10 -15 -10 -12 0 -15 -19
-15 -110 l0 -110 -385 0 -385 0 0 120 0 120 315 0 c245 0 315 -3 316 -12 0
-10 2 -10 6 0 2 6 13 12 24 12 16 0 19 7 19 44 0 38 -3 45 -22 49 -14 3 -9 5
15 6 l37 1 0 -60z m8440 -246 c327 -4 614 -7 638 -7 41 -1 42 -2 42 -34 l0
-34 -547 7 c-302 4 -604 8 -673 9 -69 1 -232 3 -362 4 l-238 1 0 36 0 35 273
-5 c149 -3 540 -9 867 -12z m2200 -314 l0 -270 -370 0 -370 0 -1 48 c0 26 0
68 1 95 1 28 -3 47 -9 47 -12 0 -16 332 -4 343 3 4 174 7 380 7 l373 0 0 -270z
m-10532 142 c39 -3 42 -1 42 22 0 14 5 26 10 26 6 0 10 -16 10 -35 l0 -35 -60
0 -60 0 1 38 c1 32 2 33 8 12 6 -21 14 -26 49 -28z m32 -182 l0 -100 248 0
c136 0 257 -3 270 -6 19 -5 22 -2 22 20 0 23 4 26 35 26 l35 0 0 -55 0 -55
-339 0 -338 0 2 123 c2 67 3 128 4 135 0 6 14 12 31 12 l30 0 0 -100z m9650
-345 c0 -22 4 -25 40 -25 36 0 40 3 40 25 0 14 5 25 10 25 13 0 13 -67 0 -72
-5 -1 -32 -1 -60 0 -50 4 -50 4 -50 38 0 19 5 34 10 34 6 0 10 -11 10 -25z"/>
<path d="M1653 6240 c0 -25 2 -35 4 -22 2 12 2 32 0 45 -2 12 -4 2 -4 -23z"/>
<path d="M2403 6193 c0 -18 26 -23 72 -13 l40 9 -47 -2 c-54 -2 -58 0 -25 13
20 8 19 9 -9 8 -17 -1 -31 -7 -31 -15z"/>
<path d="M9953 6050 c0 -25 2 -35 4 -22 2 12 2 32 0 45 -2 12 -4 2 -4 -23z"/>
<path d="M1758 5803 c12 -2 32 -2 45 0 12 2 2 4 -23 4 -25 0 -35 -2 -22 -4z"/>
<path d="M10063 5720 c0 -25 2 -35 4 -22 2 12 2 32 0 45 -2 12 -4 2 -4 -23z"/>
<path d="M10620 5600 l-45 -7 47 -1 c26 -1 50 3 53 8 3 6 3 9 -2 8 -4 0 -28
-4 -53 -8z"/>
<path d="M2703 5520 c0 -25 2 -35 4 -22 2 12 2 32 0 45 -2 12 -4 2 -4 -23z"/>
<path d="M10058 4780 c-2 -22 0 -40 4 -40 5 0 8 18 8 40 0 22 -2 40 -4 40 -2
0 -6 -18 -8 -40z"/>
<path d="M9953 4738 c4 -22 20 -27 63 -21 40 5 43 4 47 -21 l4 -26 -1 27 c-1
26 -4 28 -43 28 -44 0 -46 10 -3 18 14 2 5 5 -22 6 -34 1 -47 -3 -45 -11z"/>
<path d="M3343 4700 c0 -25 2 -35 4 -22 2 12 2 32 0 45 -2 12 -4 2 -4 -23z"/>
<path d="M9953 4468 c3 -20 30 -27 47 -13 8 7 26 15 40 18 14 2 -1 5 -32 6
-42 1 -57 -3 -55 -11z m47 -4 c0 -8 -19 -13 -24 -6 -3 5 1 9 9 9 8 0 15 -2 15
-3z"/>
<path d="M10063 4420 c0 -25 2 -35 4 -22 2 12 2 32 0 45 -2 12 -4 2 -4 -23z"/>
<path d="M2579 4174 c0 -5 -2 -28 -4 -51 -2 -23 0 -45 5 -48 12 -7 14 5 11 60
-2 36 -10 62 -12 39z"/>
<path d="M9670 2765 l0 -875 980 0 980 0 0 65 c0 50 3 65 14 65 12 0 15 19 15
90 0 71 -3 90 -15 90 -22 0 -21 215 2 224 11 4 14 17 12 43 l-3 38 -52 0 c-28
0 -49 3 -46 8 2 4 26 7 54 7 l49 0 0 40 c0 27 -5 43 -15 46 -13 5 -15 64 -15
446 l0 440 -162 -6 c-370 -13 -1248 -18 -1248 -7 0 6 -19 11 -46 11 l-46 0 4
-54 c1 -30 0 -52 -4 -49 -5 2 -8 26 -8 54 l0 49 -38 0 c-21 0 -43 -5 -50 -12
-7 -7 -62 -13 -142 -16 l-130 -5 0 60 c0 33 5 65 13 72 10 11 10 13 0 7 -9 -5
-13 1 -13 18 0 24 -3 26 -45 26 l-45 0 0 -875z m80 775 l0 -90 165 0 165 0 0
-30 c0 -30 0 -30 -62 -32 -161 -4 -244 -6 -255 -7 -10 -1 -13 -149 -13 -706
l0 -705 900 0 c850 0 900 1 901 18 1 9 1 29 1 45 -1 24 3 27 34 27 l34 0 0
-80 0 -80 -970 0 -970 0 0 859 c0 472 3 861 7 865 3 3 19 6 35 6 l28 0 0 -90z
m360 -108 c0 -56 24 -86 62 -79 22 4 22 4 -2 6 -24 1 -26 4 -28 61 l-3 60 38
-1 c32 -1 34 -2 13 -8 -21 -6 -26 -14 -28 -49 -3 -39 -1 -42 22 -42 14 0 26
-6 27 -12 0 -10 2 -10 6 0 3 9 61 12 239 12 l234 0 0 -222 c0 -123 3 -287 7
-365 l6 -143 204 0 c111 0 204 -1 205 -2 1 -2 4 -88 7 -193 l6 -190 208 -3
207 -2 0 -30 c0 -17 -4 -30 -9 -30 -5 0 -10 -40 -10 -90 0 -49 5 -90 10 -90 5
0 9 -9 9 -20 0 -20 -7 -20 -890 -20 l-890 0 0 695 0 695 128 0 c70 0 144 3
165 6 35 6 37 8 37 45 0 35 -3 39 -25 39 -14 0 -25 5 -25 10 0 6 16 10 35 10
l35 0 0 -48z m1508 -415 l2 -457 -33 0 -33 0 1 408 c0 224 -2 415 -4 425 -3
16 -12 18 -85 13 -44 -2 -220 -5 -389 -5 l-308 -1 2 -325 c1 -178 5 -329 9
-335 5 -8 67 -11 209 -8 l201 3 1 -55 c5 -220 8 -314 13 -326 5 -12 36 -14
178 -12 l172 3 2 45 c2 80 2 80 34 80 l30 0 0 -156 0 -155 -32 3 c-32 3 -33 5
-34 48 -1 25 -2 51 -3 58 -1 9 -50 12 -211 12 l-210 0 -2 193 -3 192 -207 -3
-208 -3 -1 98 c-1 209 -11 628 -15 632 -2 3 -121 3 -264 2 l-260 -2 0 30 c0
17 6 32 13 33 30 3 150 6 757 13 355 4 647 9 649 11 23 21 26 -32 29 -459z
m-78 -16 c0 -249 -4 -392 -10 -396 -15 -9 -13 -85 3 -86 10 0 10 -2 0 -6 -15
-6 -18 -93 -3 -93 6 0 10 -13 10 -30 l0 -30 -165 0 -165 0 0 164 c0 90 -3 178
-6 195 l-7 31 -202 -6 -202 -7 -6 144 c-4 79 -7 224 -7 321 l0 177 28 4 c15 2
186 5 380 6 l352 1 0 -389z m48 -449 c39 -3 42 -1 42 22 0 14 5 26 10 26 6 0
10 -16 10 -35 l0 -35 -60 0 -60 0 1 38 c1 32 2 33 8 12 6 -21 14 -26 49 -28z
m62 -87 c0 -19 -4 -35 -10 -35 -5 0 -10 12 -10 26 0 23 -3 25 -42 22 -35 -2
-43 -7 -49 -28 -6 -22 -7 -21 -8 10 l-1 36 60 2 60 3 0 -36z m-64 -315 c37 0
44 3 44 20 0 11 5 20 10 20 6 0 10 -16 10 -35 l0 -35 -60 0 -60 0 1 38 c1 23
3 28 6 15 4 -20 11 -23 49 -23z m-19 -62 c3 7 21 12 44 12 38 0 39 -1 39 -35
0 -19 -4 -35 -10 -35 -5 0 -10 9 -10 20 0 17 -7 20 -44 20 -38 0 -45 -3 -49
-22 -3 -14 -5 -7 -6 16 -1 35 1 37 16 25 13 -11 17 -11 20 -1z"/>
<path d="M10058 3353 c12 -2 32 -2 45 0 12 2 2 4 -23 4 -25 0 -35 -2 -22 -4z"/>
<path d="M3645 3420 c-4 -7 -368 -10 -1061 -10 l-1054 0 2 -682 3 -683 1097
-3 1098 -2 2 397 c2 219 2 532 0 696 l-3 297 -39 0 c-21 0 -42 -4 -45 -10z
m73 -683 l2 -677 -1090 0 -1090 0 0 670 0 670 1054 0 c646 0 1057 4 1061 9 3
6 18 9 33 8 l27 -2 3 -678z"/>
<path d="M1612 2728 l3 -603 1020 0 1019 0 0 600 0 600 -1022 3 -1022 2 2
-602z m2028 2 l0 -590 -1010 0 -1010 0 0 590 0 590 1010 0 1010 0 0 -590z"/>
<path d="M5487 3373 c-4 -3 -7 -113 -7 -243 l0 -237 -87 -116 c-49 -65 -144
-194 -213 -288 -69 -94 -151 -205 -182 -247 -31 -42 -76 -104 -101 -137 -24
-33 -78 -107 -121 -165 -42 -58 -135 -184 -206 -280 -71 -96 -126 -178 -124
-182 7 -10 4544 -10 4544 0 0 9 -22 43 -100 152 -33 47 -73 104 -89 127 -57
81 -76 108 -89 121 -6 7 -17 23 -23 34 -6 11 -36 55 -68 98 -31 43 -63 88 -71
100 -8 12 -43 61 -77 108 -34 48 -72 102 -85 120 -13 18 -37 52 -54 75 -17 23
-51 71 -76 107 -25 36 -107 153 -184 260 l-139 195 -5 200 -5 200 -1216 3
c-668 1 -1219 -1 -1222 -5z m2433 -204 l0 -191 525 -741 525 -742 -1124 -3
c-619 -1 -1632 -1 -2253 0 l-1129 3 512 695 513 695 0 238 1 237 1215 0 1215
0 0 -191z"/>
<path d="M1176 3198 c3 -4 9 -8 15 -8 5 0 9 4 9 8 0 5 -7 9 -15 9 -8 0 -12 -4
-9 -9z"/>
<path d="M4063 3030 c0 -25 2 -35 4 -22 2 12 2 32 0 45 -2 12 -4 2 -4 -23z"/>
<path d="M9312 2923 l-2 -33 -60 0 c-43 0 -59 -4 -57 -12 4 -21 31 -27 49 -11
10 9 26 13 37 10 30 -7 43 7 38 44 l-4 34 -1 -32z m-72 -49 c0 -8 -19 -13 -24
-6 -3 5 1 9 9 9 8 0 15 -2 15 -3z"/>
<path d="M9313 2830 c0 -25 2 -35 4 -22 2 12 2 32 0 45 -2 12 -4 2 -4 -23z"/>
<path d="M12063 2790 c0 -25 2 -35 4 -22 2 12 2 32 0 45 -2 12 -4 2 -4 -23z"/>
<path d="M12086 2769 c-9 -47 -7 -89 4 -89 6 0 10 25 10 55 0 54 0 55 30 55
17 0 30 -4 30 -10 0 -5 -7 -10 -15 -10 -25 0 -17 -17 11 -23 19 -3 24 -1 20
10 -3 8 -6 21 -6 29 0 10 -12 14 -39 14 -35 0 -39 -3 -45 -31z"/>
<path d="M12123 2170 c0 -25 2 -35 4 -22 2 12 2 32 0 45 -2 12 -4 2 -4 -23z"/>
<path d="M1186 2181 c-5 -8 84 -3 93 5 2 2 -16 4 -42 4 -25 0 -48 -4 -51 -9z"/>
<path d="M12160 1979 l-45 -7 52 1 c57 2 59 -9 3 -16 -25 -3 -19 -4 21 -5 44
-2 56 1 56 13 0 8 -4 15 -8 15 -4 0 -13 2 -21 3 -7 2 -33 1 -58 -4z"/>
<path d="M1186 1901 c-5 -8 84 -3 93 5 2 2 -16 4 -42 4 -25 0 -48 -4 -51 -9z"/>
<path d="M9580 1443 l0 -62 -42 -4 c-34 -3 -31 -4 14 -4 32 0 55 4 52 8 -2 4
0 10 6 14 6 4 4 15 -6 30 -9 14 -14 31 -11 38 3 8 1 20 -4 28 -6 9 -9 -8 -9
-48z"/>
<path d="M11538 1473 c12 -2 32 -2 45 0 12 2 2 4 -23 4 -25 0 -35 -2 -22 -4z"/>
<path d="M3030 1099 l-45 -7 52 1 c62 2 57 -10 -7 -16 -35 -3 -30 -4 23 -5 49
-2 66 1 65 11 -4 15 -19 27 -33 25 -5 0 -30 -4 -55 -9z"/>
<path d="M12150 980 l-45 -7 47 -1 c26 -1 50 3 53 8 3 6 3 9 -2 8 -4 0 -28 -4
-53 -8z"/>
<path d="M12100 920 c0 -22 2 -40 4 -40 2 0 6 18 8 40 2 22 0 40 -4 40 -5 0
-8 -18 -8 -40z"/>
<path d="M12103 650 c0 -25 2 -35 4 -22 2 12 2 32 0 45 -2 12 -4 2 -4 -23z"/>
<path d="M12233 650 c0 -25 2 -35 4 -22 2 12 2 32 0 45 -2 12 -4 2 -4 -23z"/>
</g>
</svg>
